<mxfile host="Electron" agent="Mozilla/5.0 (Macintosh; Intel Mac OS X 10_15_7) AppleWebKit/537.36 (KHTML, like Gecko) draw.io/27.0.9 Chrome/134.0.6998.205 Electron/35.4.0 Safari/537.36" version="27.0.9">
  <diagram name="Page-1" id="u001HsLxDvYNIx9sUPE5">
    <mxGraphModel dx="2198" dy="2357" grid="1" gridSize="10" guides="1" tooltips="1" connect="1" arrows="1" fold="1" page="1" pageScale="1" pageWidth="827" pageHeight="1169" math="0" shadow="0">
      <root>
        <mxCell id="0" />
        <mxCell id="1" parent="0" />
        <mxCell id="ppZeW9_H2Q4Zgy1ZlsiP-9" value="" style="rounded=1;whiteSpace=wrap;html=1;direction=south;opacity=15;strokeColor=#FF9933;strokeWidth=5;fillColor=#FF9933;" vertex="1" parent="1">
          <mxGeometry x="-220" y="30" width="460" height="1250" as="geometry" />
        </mxCell>
        <mxCell id="ppZeW9_H2Q4Zgy1ZlsiP-6" value="" style="rounded=1;whiteSpace=wrap;html=1;direction=south;opacity=20;strokeColor=light-dark(#0000CC,#CDCDFF);strokeWidth=4;fillColor=#99CCFF;" vertex="1" parent="1">
          <mxGeometry x="704" y="30" width="390" height="1250" as="geometry" />
        </mxCell>
        <mxCell id="3B2o3bUjgvVKRlB_GJGi-118" style="edgeStyle=orthogonalEdgeStyle;rounded=1;orthogonalLoop=1;jettySize=auto;html=1;shape=flexArrow;fillColor=#99CCFF;opacity=60;endSize=4;gradientColor=default;gradientDirection=east;flowAnimation=1;shadow=1;" parent="1" source="3B2o3bUjgvVKRlB_GJGi-75" target="3B2o3bUjgvVKRlB_GJGi-5" edge="1">
          <mxGeometry relative="1" as="geometry" />
        </mxCell>
        <mxCell id="3B2o3bUjgvVKRlB_GJGi-10" style="edgeStyle=orthogonalEdgeStyle;rounded=0;orthogonalLoop=1;jettySize=auto;html=1;exitX=0.5;exitY=1;exitDx=0;exitDy=0;strokeWidth=3;" parent="1" edge="1">
          <mxGeometry relative="1" as="geometry">
            <mxPoint x="474" y="161" as="sourcePoint" />
            <mxPoint x="474" y="181" as="targetPoint" />
          </mxGeometry>
        </mxCell>
        <mxCell id="3B2o3bUjgvVKRlB_GJGi-1" value="&lt;div&gt;&lt;br&gt;&lt;/div&gt;&lt;div&gt;&lt;span style=&quot;color: rgb(45, 55, 72); font-family: &amp;quot;Segoe UI&amp;quot;, Tahoma, Geneva, Verdana, sans-serif; font-size: 28.8px; font-weight: 600;&quot;&gt;❓&lt;/span&gt;&lt;/div&gt;&lt;div&gt;&lt;span style=&quot;color: rgb(45, 55, 72); font-family: &amp;quot;Segoe UI&amp;quot;, Tahoma, Geneva, Verdana, sans-serif; font-size: 10.8px; font-weight: 600;&quot;&gt;Formulate Historical Question&lt;/span&gt;&lt;/div&gt;&lt;div&gt;&lt;span style=&quot;color: rgb(45, 55, 72); font-family: &amp;quot;Segoe UI&amp;quot;, Tahoma, Geneva, Verdana, sans-serif; font-size: 10.8px; font-weight: 600;&quot;&gt;&lt;span style=&quot;background-color: transparent; font-size: 28.8px;&quot;&gt;&amp;nbsp;&lt;/span&gt;&lt;/span&gt;&lt;/div&gt;" style="ellipse;whiteSpace=wrap;html=1;aspect=fixed;fillColor=light-dark(#91FAB5,#008312);strokeWidth=0;verticalAlign=top;" parent="1" vertex="1">
          <mxGeometry x="414" y="41" width="120" height="120" as="geometry" />
        </mxCell>
        <mxCell id="3B2o3bUjgvVKRlB_GJGi-11" style="edgeStyle=orthogonalEdgeStyle;rounded=0;orthogonalLoop=1;jettySize=auto;html=1;exitX=0.5;exitY=1;exitDx=0;exitDy=0;entryX=0.5;entryY=0;entryDx=0;entryDy=0;strokeWidth=3;" parent="1" edge="1">
          <mxGeometry relative="1" as="geometry">
            <mxPoint x="474" y="301" as="sourcePoint" />
            <mxPoint x="474" y="321" as="targetPoint" />
          </mxGeometry>
        </mxCell>
        <mxCell id="3B2o3bUjgvVKRlB_GJGi-2" value="&lt;div&gt;&lt;span style=&quot;color: rgb(45, 55, 72); font-family: &amp;quot;Segoe UI&amp;quot;, Tahoma, Geneva, Verdana, sans-serif; font-size: 28.8px; font-weight: 600;&quot;&gt;📚&lt;/span&gt;&lt;/div&gt;&lt;span style=&quot;color: rgb(45, 55, 72); font-family: &amp;quot;Segoe UI&amp;quot;, Tahoma, Geneva, Verdana, sans-serif; font-size: 10.8px; font-weight: 600;&quot;&gt;Survey Literature &amp;amp; Historiography&lt;/span&gt;" style="ellipse;whiteSpace=wrap;html=1;aspect=fixed;fillColor=light-dark(#91FAB5,#008312);strokeWidth=0;" parent="1" vertex="1">
          <mxGeometry x="414" y="181" width="120" height="120" as="geometry" />
        </mxCell>
        <mxCell id="3B2o3bUjgvVKRlB_GJGi-12" style="edgeStyle=orthogonalEdgeStyle;rounded=0;orthogonalLoop=1;jettySize=auto;html=1;exitX=0.5;exitY=1;exitDx=0;exitDy=0;entryX=0.5;entryY=0;entryDx=0;entryDy=0;strokeWidth=3;" parent="1" edge="1">
          <mxGeometry relative="1" as="geometry">
            <mxPoint x="474" y="441" as="sourcePoint" />
            <mxPoint x="474" y="461" as="targetPoint" />
          </mxGeometry>
        </mxCell>
        <mxCell id="3B2o3bUjgvVKRlB_GJGi-94" style="edgeStyle=orthogonalEdgeStyle;rounded=0;orthogonalLoop=1;jettySize=auto;html=1;exitX=1;exitY=0.5;exitDx=0;exitDy=0;strokeColor=#FF0000;strokeWidth=3;dashed=1;flowAnimation=1;" parent="1" source="3B2o3bUjgvVKRlB_GJGi-3" target="3B2o3bUjgvVKRlB_GJGi-17" edge="1">
          <mxGeometry relative="1" as="geometry" />
        </mxCell>
        <mxCell id="3B2o3bUjgvVKRlB_GJGi-3" value="&lt;div&gt;&lt;span style=&quot;color: rgb(45, 55, 72); font-family: &amp;quot;Segoe UI&amp;quot;, Tahoma, Geneva, Verdana, sans-serif; font-size: 10.8px; font-weight: 600;&quot;&gt;&lt;span style=&quot;font-size: 28.8px;&quot;&gt;🎯&lt;/span&gt;&lt;/span&gt;&lt;/div&gt;&lt;span style=&quot;color: rgb(45, 55, 72); font-family: &amp;quot;Segoe UI&amp;quot;, Tahoma, Geneva, Verdana, sans-serif; font-size: 10.8px; font-weight: 600;&quot;&gt;Define Scope &amp;amp; Methodology&lt;/span&gt;" style="ellipse;whiteSpace=wrap;html=1;aspect=fixed;fillColor=light-dark(#91FAB5,#008312);strokeWidth=0;" parent="1" vertex="1">
          <mxGeometry x="414" y="321" width="120" height="120" as="geometry" />
        </mxCell>
        <mxCell id="3B2o3bUjgvVKRlB_GJGi-13" style="edgeStyle=orthogonalEdgeStyle;rounded=0;orthogonalLoop=1;jettySize=auto;html=1;exitX=0.5;exitY=1;exitDx=0;exitDy=0;entryX=0.5;entryY=0;entryDx=0;entryDy=0;strokeWidth=3;" parent="1" edge="1">
          <mxGeometry relative="1" as="geometry">
            <mxPoint x="474" y="581" as="sourcePoint" />
            <mxPoint x="474" y="601" as="targetPoint" />
          </mxGeometry>
        </mxCell>
        <mxCell id="3B2o3bUjgvVKRlB_GJGi-95" style="edgeStyle=orthogonalEdgeStyle;rounded=0;orthogonalLoop=1;jettySize=auto;html=1;exitX=1;exitY=0.5;exitDx=0;exitDy=0;strokeColor=#FF0000;dashed=1;strokeWidth=3;flowAnimation=1;" parent="1" source="3B2o3bUjgvVKRlB_GJGi-4" edge="1">
          <mxGeometry relative="1" as="geometry">
            <mxPoint x="610" y="521" as="targetPoint" />
          </mxGeometry>
        </mxCell>
        <mxCell id="ppZeW9_H2Q4Zgy1ZlsiP-11" value="" style="edgeStyle=orthogonalEdgeStyle;rounded=0;orthogonalLoop=1;jettySize=auto;html=1;" edge="1" parent="1" source="3B2o3bUjgvVKRlB_GJGi-4" target="3B2o3bUjgvVKRlB_GJGi-22">
          <mxGeometry relative="1" as="geometry" />
        </mxCell>
        <mxCell id="3B2o3bUjgvVKRlB_GJGi-4" value="&lt;div&gt;&lt;span style=&quot;color: rgb(45, 55, 72); font-family: &amp;quot;Segoe UI&amp;quot;, Tahoma, Geneva, Verdana, sans-serif; font-size: 10.8px; font-weight: 600;&quot;&gt;&lt;span style=&quot;font-size: 28.8px;&quot;&gt;🔍&lt;/span&gt;&lt;/span&gt;&lt;/div&gt;&lt;span style=&quot;color: rgb(45, 55, 72); font-family: &amp;quot;Segoe UI&amp;quot;, Tahoma, Geneva, Verdana, sans-serif; font-size: 10.8px; font-weight: 600;&quot;&gt;Locate &amp;amp; Collect Primary Sources&lt;/span&gt;" style="ellipse;whiteSpace=wrap;html=1;aspect=fixed;fillColor=light-dark(#91FAB5,#008312);strokeWidth=0;" parent="1" vertex="1">
          <mxGeometry x="414" y="461" width="120" height="120" as="geometry" />
        </mxCell>
        <mxCell id="3B2o3bUjgvVKRlB_GJGi-14" style="edgeStyle=orthogonalEdgeStyle;rounded=0;orthogonalLoop=1;jettySize=auto;html=1;exitX=0.5;exitY=1;exitDx=0;exitDy=0;strokeWidth=3;" parent="1" edge="1">
          <mxGeometry relative="1" as="geometry">
            <mxPoint x="474" y="721" as="sourcePoint" />
            <mxPoint x="474" y="750" as="targetPoint" />
          </mxGeometry>
        </mxCell>
        <mxCell id="3B2o3bUjgvVKRlB_GJGi-18" style="edgeStyle=orthogonalEdgeStyle;rounded=0;orthogonalLoop=1;jettySize=auto;html=1;exitX=1;exitY=0.5;exitDx=0;exitDy=0;strokeWidth=3;" parent="1" edge="1">
          <mxGeometry relative="1" as="geometry">
            <mxPoint x="554" y="661" as="targetPoint" />
            <mxPoint x="534" y="661" as="sourcePoint" />
          </mxGeometry>
        </mxCell>
        <mxCell id="3B2o3bUjgvVKRlB_GJGi-21" style="edgeStyle=orthogonalEdgeStyle;rounded=0;orthogonalLoop=1;jettySize=auto;html=1;exitX=0;exitY=0.5;exitDx=0;exitDy=0;entryX=1;entryY=0.5;entryDx=0;entryDy=0;strokeWidth=3;strokeColor=#FF0000;dashed=1;flowAnimation=1;" parent="1" edge="1">
          <mxGeometry relative="1" as="geometry">
            <mxPoint x="412" y="676" as="sourcePoint" />
            <mxPoint x="378" y="676" as="targetPoint" />
          </mxGeometry>
        </mxCell>
        <mxCell id="3B2o3bUjgvVKRlB_GJGi-5" value="&lt;div&gt;&lt;span style=&quot;color: rgb(45, 55, 72); font-family: &amp;quot;Segoe UI&amp;quot;, Tahoma, Geneva, Verdana, sans-serif; font-size: 10.8px; font-weight: 600;&quot;&gt;&lt;span style=&quot;font-size: 28.8px;&quot;&gt;🔬&lt;/span&gt;&lt;/span&gt;&lt;/div&gt;&lt;span style=&quot;color: rgb(45, 55, 72); font-family: &amp;quot;Segoe UI&amp;quot;, Tahoma, Geneva, Verdana, sans-serif; font-size: 10.8px; font-weight: 600;&quot;&gt;Analyze Sources&amp;nbsp;&lt;/span&gt;&lt;div&gt;&lt;span style=&quot;color: rgb(45, 55, 72); font-family: &amp;quot;Segoe UI&amp;quot;, Tahoma, Geneva, Verdana, sans-serif; font-size: 10.8px; font-weight: 600;&quot;&gt;&amp;amp; Data&lt;/span&gt;&lt;/div&gt;" style="ellipse;whiteSpace=wrap;html=1;aspect=fixed;fillColor=light-dark(#91FAB5,#008312);strokeWidth=0;" parent="1" vertex="1">
          <mxGeometry x="414" y="601" width="120" height="120" as="geometry" />
        </mxCell>
        <mxCell id="ppZeW9_H2Q4Zgy1ZlsiP-12" style="edgeStyle=orthogonalEdgeStyle;rounded=0;orthogonalLoop=1;jettySize=auto;html=1;exitX=0.5;exitY=1;exitDx=0;exitDy=0;strokeWidth=3;" edge="1" parent="1" source="3B2o3bUjgvVKRlB_GJGi-6" target="3B2o3bUjgvVKRlB_GJGi-8">
          <mxGeometry relative="1" as="geometry" />
        </mxCell>
        <mxCell id="3B2o3bUjgvVKRlB_GJGi-6" value="&lt;div&gt;&lt;span style=&quot;color: rgb(45, 55, 72); font-family: &amp;quot;Segoe UI&amp;quot;, Tahoma, Geneva, Verdana, sans-serif; font-size: 10.8px; font-weight: 600;&quot;&gt;&lt;span style=&quot;font-size: 28.8px;&quot;&gt;🏗️&lt;/span&gt;&lt;/span&gt;&lt;/div&gt;&lt;span style=&quot;color: rgb(45, 55, 72); font-family: &amp;quot;Segoe UI&amp;quot;, Tahoma, Geneva, Verdana, sans-serif; font-size: 10.8px; font-weight: 600;&quot;&gt;Build Interpretive Argument&lt;/span&gt;" style="ellipse;whiteSpace=wrap;html=1;aspect=fixed;fillColor=light-dark(#91FAB5,#008312);strokeWidth=0;" parent="1" vertex="1">
          <mxGeometry x="414" y="751" width="120" height="120" as="geometry" />
        </mxCell>
        <mxCell id="3B2o3bUjgvVKRlB_GJGi-16" style="edgeStyle=orthogonalEdgeStyle;rounded=0;orthogonalLoop=1;jettySize=auto;html=1;exitX=0.5;exitY=1;exitDx=0;exitDy=0;entryX=0.5;entryY=0;entryDx=0;entryDy=0;strokeWidth=3;" parent="1" edge="1">
          <mxGeometry relative="1" as="geometry">
            <mxPoint x="474" y="1008" as="sourcePoint" />
            <mxPoint x="474" y="1030" as="targetPoint" />
          </mxGeometry>
        </mxCell>
        <mxCell id="3B2o3bUjgvVKRlB_GJGi-8" value="&lt;div&gt;&lt;span style=&quot;color: rgb(45, 55, 72); font-family: &amp;quot;Segoe UI&amp;quot;, Tahoma, Geneva, Verdana, sans-serif; font-size: 10.8px; font-weight: 600;&quot;&gt;&lt;span style=&quot;font-size: 28.8px;&quot;&gt;✍️&lt;/span&gt;&lt;/span&gt;&lt;/div&gt;&lt;span style=&quot;color: rgb(45, 55, 72); font-family: &amp;quot;Segoe UI&amp;quot;, Tahoma, Geneva, Verdana, sans-serif; font-size: 10.8px; font-weight: 600;&quot;&gt;Write &amp;amp; Revise&lt;/span&gt;" style="ellipse;whiteSpace=wrap;html=1;aspect=fixed;fillColor=light-dark(#91FAB5,#008312);strokeWidth=0;" parent="1" vertex="1">
          <mxGeometry x="414" y="888" width="120" height="120" as="geometry" />
        </mxCell>
        <mxCell id="3B2o3bUjgvVKRlB_GJGi-9" value="&lt;div&gt;&lt;span style=&quot;color: rgb(45, 55, 72); font-family: &amp;quot;Segoe UI&amp;quot;, Tahoma, Geneva, Verdana, sans-serif; font-size: 10.8px; font-weight: 600;&quot;&gt;&lt;span style=&quot;font-size: 28.8px;&quot;&gt;📢&lt;/span&gt;&lt;/span&gt;&lt;/div&gt;&lt;span style=&quot;color: rgb(45, 55, 72); font-family: &amp;quot;Segoe UI&amp;quot;, Tahoma, Geneva, Verdana, sans-serif; font-size: 10.8px; font-weight: 600;&quot;&gt;Disseminate &amp;amp; Engage&lt;/span&gt;" style="ellipse;whiteSpace=wrap;html=1;aspect=fixed;fillColor=light-dark(#91FAB5,#008312);strokeWidth=0;" parent="1" vertex="1">
          <mxGeometry x="410" y="1160" width="120" height="120" as="geometry" />
        </mxCell>
        <mxCell id="3B2o3bUjgvVKRlB_GJGi-93" style="edgeStyle=orthogonalEdgeStyle;rounded=0;orthogonalLoop=1;jettySize=auto;html=1;exitX=0.5;exitY=1;exitDx=0;exitDy=0;entryX=1;entryY=0.5;entryDx=0;entryDy=0;strokeWidth=3;dashed=1;strokeColor=#FF0000;flowAnimation=1;" parent="1" target="3B2o3bUjgvVKRlB_GJGi-6" edge="1">
          <mxGeometry relative="1" as="geometry">
            <mxPoint x="616" y="734" as="sourcePoint" />
            <Array as="points">
              <mxPoint x="616" y="812" />
            </Array>
          </mxGeometry>
        </mxCell>
        <mxCell id="3B2o3bUjgvVKRlB_GJGi-17" value="&lt;div&gt;&lt;font face=&quot;Segoe UI, Tahoma, Geneva, Verdana, sans-serif&quot; color=&quot;#2d3748&quot;&gt;&lt;span style=&quot;font-size: 28.8px; font-weight: 600;&quot;&gt;✓&lt;/span&gt;&lt;span style=&quot;font-size: 10.8px;&quot;&gt;&lt;b&gt;&lt;/b&gt;&lt;/span&gt;&lt;/font&gt;&lt;/div&gt;&lt;font face=&quot;Segoe UI, Tahoma, Geneva, Verdana, sans-serif&quot; color=&quot;#2d3748&quot;&gt;&lt;span style=&quot;font-size: 10.8px;&quot;&gt;&lt;b&gt;Validate Hypothesis&lt;/b&gt;&lt;/span&gt;&lt;/font&gt;" style="ellipse;whiteSpace=wrap;html=1;aspect=fixed;fillColor=light-dark(#00D465,#008312);strokeWidth=0;" parent="1" vertex="1">
          <mxGeometry x="556" y="603" width="120" height="120" as="geometry" />
        </mxCell>
        <mxCell id="3B2o3bUjgvVKRlB_GJGi-23" style="edgeStyle=orthogonalEdgeStyle;rounded=0;orthogonalLoop=1;jettySize=auto;html=1;exitX=0.5;exitY=0;exitDx=0;exitDy=0;entryX=0.5;entryY=1;entryDx=0;entryDy=0;strokeWidth=3;dashed=1;strokeColor=#FF0000;flowAnimation=1;" parent="1" source="3B2o3bUjgvVKRlB_GJGi-20" target="3B2o3bUjgvVKRlB_GJGi-22" edge="1">
          <mxGeometry relative="1" as="geometry" />
        </mxCell>
        <mxCell id="3B2o3bUjgvVKRlB_GJGi-20" value="&lt;div&gt;&lt;font face=&quot;Segoe UI, Tahoma, Geneva, Verdana, sans-serif&quot; color=&quot;#2d3748&quot;&gt;&lt;span style=&quot;font-size: 28.8px; font-weight: 600;&quot;&gt;✗&lt;/span&gt;&lt;span style=&quot;font-size: 10.8px;&quot;&gt;&lt;b&gt;&lt;/b&gt;&lt;/span&gt;&lt;/font&gt;&lt;/div&gt;&lt;font face=&quot;Segoe UI, Tahoma, Geneva, Verdana, sans-serif&quot; color=&quot;#2d3748&quot;&gt;&lt;span style=&quot;font-size: 10.8px;&quot;&gt;&lt;b&gt;Reject Hypothesis&lt;/b&gt;&lt;/span&gt;&lt;/font&gt;" style="ellipse;whiteSpace=wrap;html=1;aspect=fixed;fillColor=light-dark(#FF9933,#008312);strokeWidth=0;" parent="1" vertex="1">
          <mxGeometry x="260" y="601" width="120" height="120" as="geometry" />
        </mxCell>
        <mxCell id="3B2o3bUjgvVKRlB_GJGi-24" style="edgeStyle=orthogonalEdgeStyle;rounded=1;orthogonalLoop=1;jettySize=auto;html=1;exitX=1;exitY=0.5;exitDx=0;exitDy=0;entryX=0;entryY=0.5;entryDx=0;entryDy=0;strokeWidth=1;shadow=1;shape=flexArrow;fillColor=#99CCFF;endSize=4;gradientColor=default;gradientDirection=east;opacity=60;flowAnimation=1;" parent="1" source="3B2o3bUjgvVKRlB_GJGi-22" target="3B2o3bUjgvVKRlB_GJGi-4" edge="1">
          <mxGeometry relative="1" as="geometry" />
        </mxCell>
        <mxCell id="3B2o3bUjgvVKRlB_GJGi-25" style="edgeStyle=orthogonalEdgeStyle;rounded=0;orthogonalLoop=1;jettySize=auto;html=1;exitX=0.5;exitY=0;exitDx=0;exitDy=0;entryX=0;entryY=0.5;entryDx=0;entryDy=0;strokeWidth=3;dashed=1;strokeColor=#FF0000;flowAnimation=1;" parent="1" source="3B2o3bUjgvVKRlB_GJGi-22" target="3B2o3bUjgvVKRlB_GJGi-3" edge="1">
          <mxGeometry relative="1" as="geometry" />
        </mxCell>
        <mxCell id="3B2o3bUjgvVKRlB_GJGi-22" value="&lt;div&gt;&lt;span style=&quot;color: rgb(45, 55, 72); font-family: &amp;quot;Segoe UI&amp;quot;, Tahoma, Geneva, Verdana, sans-serif; font-size: 10.8px; font-weight: 600;&quot;&gt;&lt;span style=&quot;font-size: 28.8px;&quot;&gt;🔄&lt;/span&gt;&lt;/span&gt;&lt;/div&gt;&lt;span style=&quot;color: rgb(45, 55, 72); font-family: &amp;quot;Segoe UI&amp;quot;, Tahoma, Geneva, Verdana, sans-serif; font-size: 10.8px; font-weight: 600;&quot;&gt;Iterate the Process&lt;/span&gt;" style="ellipse;whiteSpace=wrap;html=1;aspect=fixed;fillColor=light-dark(#91FAB5,#008312);strokeWidth=0;" parent="1" vertex="1">
          <mxGeometry x="260" y="461" width="120" height="120" as="geometry" />
        </mxCell>
        <mxCell id="ppZeW9_H2Q4Zgy1ZlsiP-7" style="edgeStyle=orthogonalEdgeStyle;rounded=0;orthogonalLoop=1;jettySize=auto;html=1;exitX=0.5;exitY=1;exitDx=0;exitDy=0;entryX=0.5;entryY=0;entryDx=0;entryDy=0;strokeWidth=3;" edge="1" parent="1" source="3B2o3bUjgvVKRlB_GJGi-26">
          <mxGeometry relative="1" as="geometry">
            <mxPoint x="470" y="1167" as="targetPoint" />
          </mxGeometry>
        </mxCell>
        <mxCell id="3B2o3bUjgvVKRlB_GJGi-26" value="&lt;div&gt;&lt;span style=&quot;color: rgb(45, 55, 72); font-family: &amp;quot;Segoe UI&amp;quot;, Tahoma, Geneva, Verdana, sans-serif; font-size: 10.8px; font-weight: 600;&quot;&gt;&lt;span style=&quot;font-size: 28.8px;&quot;&gt;📝&lt;/span&gt;&lt;/span&gt;&lt;/div&gt;&lt;span style=&quot;color: rgb(45, 55, 72); font-family: &amp;quot;Segoe UI&amp;quot;, Tahoma, Geneva, Verdana, sans-serif; font-size: 10.8px; font-weight: 600;&quot;&gt;Respond, Revise &amp;amp; Reframe&lt;/span&gt;" style="ellipse;whiteSpace=wrap;html=1;aspect=fixed;fillColor=light-dark(#FF9933,#008312);strokeWidth=0;" parent="1" vertex="1">
          <mxGeometry x="410" y="1026" width="120" height="120" as="geometry" />
        </mxCell>
        <mxCell id="3B2o3bUjgvVKRlB_GJGi-32" value="&lt;div data-en-clipboard=&quot;true&quot; data-pm-slice=&quot;1 1 [&amp;quot;ol&amp;quot;,{&amp;quot;style&amp;quot;:null,&amp;quot;start&amp;quot;:null,&amp;quot;backgroundColor&amp;quot;:null,&amp;quot;color&amp;quot;:null,&amp;quot;lineHeight&amp;quot;:null,&amp;quot;listStyleType&amp;quot;:null},&amp;quot;li&amp;quot;,{&amp;quot;style&amp;quot;:null,&amp;quot;checked&amp;quot;:null,&amp;quot;value&amp;quot;:null,&amp;quot;displayValue&amp;quot;:1,&amp;quot;backgroundColor&amp;quot;:null,&amp;quot;color&amp;quot;:null,&amp;quot;listStyleType&amp;quot;:null,&amp;quot;isCollapsed&amp;quot;:null,&amp;quot;draggable&amp;quot;:false,&amp;quot;firstLetterMarks&amp;quot;:[],&amp;quot;listNestingLevel&amp;quot;:1,&amp;quot;firstLetterTextKind&amp;quot;:&amp;quot;p&amp;quot;}]&quot; draggable=&quot;false&quot;&gt;&lt;font style=&quot;font-size: 13px;&quot;&gt;&lt;b style=&quot;&quot;&gt;1. Formulate / Explore a Historical Question&lt;/b&gt;&lt;/font&gt;&lt;/div&gt;&lt;div data-en-clipboard=&quot;true&quot; data-pm-slice=&quot;1 1 [&amp;quot;ol&amp;quot;,{&amp;quot;style&amp;quot;:null,&amp;quot;start&amp;quot;:null,&amp;quot;backgroundColor&amp;quot;:null,&amp;quot;color&amp;quot;:null,&amp;quot;lineHeight&amp;quot;:null,&amp;quot;listStyleType&amp;quot;:null},&amp;quot;li&amp;quot;,{&amp;quot;style&amp;quot;:null,&amp;quot;checked&amp;quot;:null,&amp;quot;value&amp;quot;:null,&amp;quot;displayValue&amp;quot;:1,&amp;quot;backgroundColor&amp;quot;:null,&amp;quot;color&amp;quot;:null,&amp;quot;listStyleType&amp;quot;:null,&amp;quot;isCollapsed&amp;quot;:null,&amp;quot;draggable&amp;quot;:false,&amp;quot;firstLetterMarks&amp;quot;:[],&amp;quot;listNestingLevel&amp;quot;:1,&amp;quot;firstLetterTextKind&amp;quot;:&amp;quot;p&amp;quot;}]&quot; draggable=&quot;false&quot;&gt;&lt;font style=&quot;font-size: 13px;&quot;&gt;&lt;b style=&quot;&quot;&gt;Clarify the research direction based on preliminary sources and observations&lt;/b&gt;&lt;/font&gt;&lt;/div&gt;" style="rounded=1;whiteSpace=wrap;html=1;fillColor=default;strokeColor=none;fontColor=#000000;shadow=1;" parent="1" vertex="1">
          <mxGeometry x="734" y="70" width="320" height="80" as="geometry" />
        </mxCell>
        <mxCell id="3B2o3bUjgvVKRlB_GJGi-34" value="&lt;div data-en-clipboard=&quot;true&quot; data-pm-slice=&quot;1 1 [&amp;quot;ol&amp;quot;,{&amp;quot;style&amp;quot;:null,&amp;quot;start&amp;quot;:null,&amp;quot;backgroundColor&amp;quot;:null,&amp;quot;color&amp;quot;:null,&amp;quot;lineHeight&amp;quot;:null,&amp;quot;listStyleType&amp;quot;:null},&amp;quot;li&amp;quot;,{&amp;quot;style&amp;quot;:null,&amp;quot;checked&amp;quot;:null,&amp;quot;value&amp;quot;:null,&amp;quot;displayValue&amp;quot;:1,&amp;quot;backgroundColor&amp;quot;:null,&amp;quot;color&amp;quot;:null,&amp;quot;listStyleType&amp;quot;:null,&amp;quot;isCollapsed&amp;quot;:null,&amp;quot;draggable&amp;quot;:false,&amp;quot;firstLetterMarks&amp;quot;:[],&amp;quot;listNestingLevel&amp;quot;:1,&amp;quot;firstLetterTextKind&amp;quot;:&amp;quot;p&amp;quot;}]&quot; draggable=&quot;false&quot;&gt;&lt;div data-en-clipboard=&quot;true&quot; data-pm-slice=&quot;1 1 [&amp;quot;ol&amp;quot;,{&amp;quot;style&amp;quot;:null,&amp;quot;start&amp;quot;:null,&amp;quot;backgroundColor&amp;quot;:null,&amp;quot;color&amp;quot;:null,&amp;quot;lineHeight&amp;quot;:null,&amp;quot;listStyleType&amp;quot;:null},&amp;quot;li&amp;quot;,{&amp;quot;style&amp;quot;:null,&amp;quot;checked&amp;quot;:null,&amp;quot;value&amp;quot;:null,&amp;quot;displayValue&amp;quot;:2,&amp;quot;backgroundColor&amp;quot;:null,&amp;quot;color&amp;quot;:null,&amp;quot;listStyleType&amp;quot;:null,&amp;quot;isCollapsed&amp;quot;:null,&amp;quot;draggable&amp;quot;:false,&amp;quot;firstLetterMarks&amp;quot;:[],&amp;quot;listNestingLevel&amp;quot;:1,&amp;quot;firstLetterTextKind&amp;quot;:&amp;quot;p&amp;quot;}]&quot; draggable=&quot;false&quot;&gt;&lt;font style=&quot;font-size: 13px;&quot;&gt;&lt;b style=&quot;&quot;&gt;2. Survey the Literature and Historiography&lt;/b&gt;&lt;/font&gt;&lt;/div&gt;&lt;div data-en-clipboard=&quot;true&quot; data-pm-slice=&quot;1 1 [&amp;quot;ol&amp;quot;,{&amp;quot;style&amp;quot;:null,&amp;quot;start&amp;quot;:null,&amp;quot;backgroundColor&amp;quot;:null,&amp;quot;color&amp;quot;:null,&amp;quot;lineHeight&amp;quot;:null,&amp;quot;listStyleType&amp;quot;:null},&amp;quot;li&amp;quot;,{&amp;quot;style&amp;quot;:null,&amp;quot;checked&amp;quot;:null,&amp;quot;value&amp;quot;:null,&amp;quot;displayValue&amp;quot;:2,&amp;quot;backgroundColor&amp;quot;:null,&amp;quot;color&amp;quot;:null,&amp;quot;listStyleType&amp;quot;:null,&amp;quot;isCollapsed&amp;quot;:null,&amp;quot;draggable&amp;quot;:false,&amp;quot;firstLetterMarks&amp;quot;:[],&amp;quot;listNestingLevel&amp;quot;:1,&amp;quot;firstLetterTextKind&amp;quot;:&amp;quot;p&amp;quot;}]&quot; draggable=&quot;false&quot;&gt;&lt;font style=&quot;font-size: 13px;&quot;&gt;&lt;b style=&quot;&quot;&gt;Map existing interpretations, methods, and debates&lt;/b&gt;&lt;/font&gt;&lt;/div&gt;&lt;/div&gt;" style="rounded=1;whiteSpace=wrap;html=1;fillColor=default;strokeColor=none;fontColor=#000000;shadow=1;" parent="1" vertex="1">
          <mxGeometry x="734" y="198" width="320" height="83" as="geometry" />
        </mxCell>
        <mxCell id="3B2o3bUjgvVKRlB_GJGi-42" value="&lt;div data-en-clipboard=&quot;true&quot; data-pm-slice=&quot;1 1 [&amp;quot;ol&amp;quot;,{&amp;quot;style&amp;quot;:null,&amp;quot;start&amp;quot;:null,&amp;quot;backgroundColor&amp;quot;:null,&amp;quot;color&amp;quot;:null,&amp;quot;lineHeight&amp;quot;:null,&amp;quot;listStyleType&amp;quot;:null},&amp;quot;li&amp;quot;,{&amp;quot;style&amp;quot;:null,&amp;quot;checked&amp;quot;:null,&amp;quot;value&amp;quot;:null,&amp;quot;displayValue&amp;quot;:1,&amp;quot;backgroundColor&amp;quot;:null,&amp;quot;color&amp;quot;:null,&amp;quot;listStyleType&amp;quot;:null,&amp;quot;isCollapsed&amp;quot;:null,&amp;quot;draggable&amp;quot;:false,&amp;quot;firstLetterMarks&amp;quot;:[],&amp;quot;listNestingLevel&amp;quot;:1,&amp;quot;firstLetterTextKind&amp;quot;:&amp;quot;p&amp;quot;}]&quot; draggable=&quot;false&quot;&gt;&lt;div data-en-clipboard=&quot;true&quot; data-pm-slice=&quot;1 1 [&amp;quot;ol&amp;quot;,{&amp;quot;style&amp;quot;:null,&amp;quot;start&amp;quot;:null,&amp;quot;backgroundColor&amp;quot;:null,&amp;quot;color&amp;quot;:null,&amp;quot;lineHeight&amp;quot;:null,&amp;quot;listStyleType&amp;quot;:null},&amp;quot;li&amp;quot;,{&amp;quot;style&amp;quot;:null,&amp;quot;checked&amp;quot;:null,&amp;quot;value&amp;quot;:null,&amp;quot;displayValue&amp;quot;:2,&amp;quot;backgroundColor&amp;quot;:null,&amp;quot;color&amp;quot;:null,&amp;quot;listStyleType&amp;quot;:null,&amp;quot;isCollapsed&amp;quot;:null,&amp;quot;draggable&amp;quot;:false,&amp;quot;firstLetterMarks&amp;quot;:[],&amp;quot;listNestingLevel&amp;quot;:1,&amp;quot;firstLetterTextKind&amp;quot;:&amp;quot;p&amp;quot;}]&quot; draggable=&quot;false&quot;&gt;&lt;div data-en-clipboard=&quot;true&quot; data-pm-slice=&quot;1 1 [&amp;quot;ol&amp;quot;,{&amp;quot;style&amp;quot;:null,&amp;quot;start&amp;quot;:null,&amp;quot;backgroundColor&amp;quot;:null,&amp;quot;color&amp;quot;:null,&amp;quot;lineHeight&amp;quot;:null,&amp;quot;listStyleType&amp;quot;:null},&amp;quot;li&amp;quot;,{&amp;quot;style&amp;quot;:null,&amp;quot;checked&amp;quot;:null,&amp;quot;value&amp;quot;:null,&amp;quot;displayValue&amp;quot;:3,&amp;quot;backgroundColor&amp;quot;:null,&amp;quot;color&amp;quot;:null,&amp;quot;listStyleType&amp;quot;:null,&amp;quot;isCollapsed&amp;quot;:null,&amp;quot;draggable&amp;quot;:false,&amp;quot;firstLetterMarks&amp;quot;:[],&amp;quot;listNestingLevel&amp;quot;:1,&amp;quot;firstLetterTextKind&amp;quot;:&amp;quot;p&amp;quot;}]&quot; draggable=&quot;false&quot;&gt;&lt;font style=&quot;font-size: 13px;&quot;&gt;&lt;b style=&quot;&quot;&gt;3. Define Scope, Concepts, and Methodology&amp;nbsp;&lt;/b&gt;&lt;/font&gt;&lt;/div&gt;&lt;div data-en-clipboard=&quot;true&quot; data-pm-slice=&quot;1 1 [&amp;quot;ol&amp;quot;,{&amp;quot;style&amp;quot;:null,&amp;quot;start&amp;quot;:null,&amp;quot;backgroundColor&amp;quot;:null,&amp;quot;color&amp;quot;:null,&amp;quot;lineHeight&amp;quot;:null,&amp;quot;listStyleType&amp;quot;:null},&amp;quot;li&amp;quot;,{&amp;quot;style&amp;quot;:null,&amp;quot;checked&amp;quot;:null,&amp;quot;value&amp;quot;:null,&amp;quot;displayValue&amp;quot;:3,&amp;quot;backgroundColor&amp;quot;:null,&amp;quot;color&amp;quot;:null,&amp;quot;listStyleType&amp;quot;:null,&amp;quot;isCollapsed&amp;quot;:null,&amp;quot;draggable&amp;quot;:false,&amp;quot;firstLetterMarks&amp;quot;:[],&amp;quot;listNestingLevel&amp;quot;:1,&amp;quot;firstLetterTextKind&amp;quot;:&amp;quot;p&amp;quot;}]&quot; draggable=&quot;false&quot;&gt;&lt;b style=&quot;background-color: transparent;&quot;&gt;&lt;font style=&quot;font-size: 13px;&quot;&gt;Set temporal, spatial, and conceptual boundaries&lt;/font&gt;&lt;/b&gt;&lt;/div&gt;&lt;div data-en-clipboard=&quot;true&quot; data-pm-slice=&quot;1 1 [&amp;quot;ol&amp;quot;,{&amp;quot;style&amp;quot;:null,&amp;quot;start&amp;quot;:null,&amp;quot;backgroundColor&amp;quot;:null,&amp;quot;color&amp;quot;:null,&amp;quot;lineHeight&amp;quot;:null,&amp;quot;listStyleType&amp;quot;:null},&amp;quot;li&amp;quot;,{&amp;quot;style&amp;quot;:null,&amp;quot;checked&amp;quot;:null,&amp;quot;value&amp;quot;:null,&amp;quot;displayValue&amp;quot;:3,&amp;quot;backgroundColor&amp;quot;:null,&amp;quot;color&amp;quot;:null,&amp;quot;listStyleType&amp;quot;:null,&amp;quot;isCollapsed&amp;quot;:null,&amp;quot;draggable&amp;quot;:false,&amp;quot;firstLetterMarks&amp;quot;:[],&amp;quot;listNestingLevel&amp;quot;:1,&amp;quot;firstLetterTextKind&amp;quot;:&amp;quot;p&amp;quot;}]&quot; draggable=&quot;false&quot;&gt;&lt;b style=&quot;background-color: transparent;&quot;&gt;&lt;font style=&quot;font-size: 13px;&quot;&gt;Select methods&lt;/font&gt;&lt;/b&gt;&lt;/div&gt;&lt;/div&gt;&lt;/div&gt;" style="rounded=1;whiteSpace=wrap;html=1;fillColor=default;strokeColor=none;fontColor=#000000;shadow=1;" parent="1" vertex="1">
          <mxGeometry x="730" y="338.25" width="320" height="81.75" as="geometry" />
        </mxCell>
        <mxCell id="3B2o3bUjgvVKRlB_GJGi-44" value="&lt;div data-en-clipboard=&quot;true&quot; data-pm-slice=&quot;1 1 [&amp;quot;ol&amp;quot;,{&amp;quot;style&amp;quot;:null,&amp;quot;start&amp;quot;:null,&amp;quot;backgroundColor&amp;quot;:null,&amp;quot;color&amp;quot;:null,&amp;quot;lineHeight&amp;quot;:null,&amp;quot;listStyleType&amp;quot;:null},&amp;quot;li&amp;quot;,{&amp;quot;style&amp;quot;:null,&amp;quot;checked&amp;quot;:null,&amp;quot;value&amp;quot;:null,&amp;quot;displayValue&amp;quot;:1,&amp;quot;backgroundColor&amp;quot;:null,&amp;quot;color&amp;quot;:null,&amp;quot;listStyleType&amp;quot;:null,&amp;quot;isCollapsed&amp;quot;:null,&amp;quot;draggable&amp;quot;:false,&amp;quot;firstLetterMarks&amp;quot;:[],&amp;quot;listNestingLevel&amp;quot;:1,&amp;quot;firstLetterTextKind&amp;quot;:&amp;quot;p&amp;quot;}]&quot; draggable=&quot;false&quot;&gt;&lt;div data-en-clipboard=&quot;true&quot; data-pm-slice=&quot;1 1 [&amp;quot;ol&amp;quot;,{&amp;quot;style&amp;quot;:null,&amp;quot;start&amp;quot;:null,&amp;quot;backgroundColor&amp;quot;:null,&amp;quot;color&amp;quot;:null,&amp;quot;lineHeight&amp;quot;:null,&amp;quot;listStyleType&amp;quot;:null},&amp;quot;li&amp;quot;,{&amp;quot;style&amp;quot;:null,&amp;quot;checked&amp;quot;:null,&amp;quot;value&amp;quot;:null,&amp;quot;displayValue&amp;quot;:2,&amp;quot;backgroundColor&amp;quot;:null,&amp;quot;color&amp;quot;:null,&amp;quot;listStyleType&amp;quot;:null,&amp;quot;isCollapsed&amp;quot;:null,&amp;quot;draggable&amp;quot;:false,&amp;quot;firstLetterMarks&amp;quot;:[],&amp;quot;listNestingLevel&amp;quot;:1,&amp;quot;firstLetterTextKind&amp;quot;:&amp;quot;p&amp;quot;}]&quot; draggable=&quot;false&quot;&gt;&lt;div data-en-clipboard=&quot;true&quot; data-pm-slice=&quot;1 1 [&amp;quot;ol&amp;quot;,{&amp;quot;style&amp;quot;:null,&amp;quot;start&amp;quot;:null,&amp;quot;backgroundColor&amp;quot;:null,&amp;quot;color&amp;quot;:null,&amp;quot;lineHeight&amp;quot;:null,&amp;quot;listStyleType&amp;quot;:null},&amp;quot;li&amp;quot;,{&amp;quot;style&amp;quot;:null,&amp;quot;checked&amp;quot;:null,&amp;quot;value&amp;quot;:null,&amp;quot;displayValue&amp;quot;:3,&amp;quot;backgroundColor&amp;quot;:null,&amp;quot;color&amp;quot;:null,&amp;quot;listStyleType&amp;quot;:null,&amp;quot;isCollapsed&amp;quot;:null,&amp;quot;draggable&amp;quot;:false,&amp;quot;firstLetterMarks&amp;quot;:[],&amp;quot;listNestingLevel&amp;quot;:1,&amp;quot;firstLetterTextKind&amp;quot;:&amp;quot;p&amp;quot;}]&quot; draggable=&quot;false&quot;&gt;&lt;div data-en-clipboard=&quot;true&quot; data-pm-slice=&quot;1 1 [&amp;quot;ol&amp;quot;,{&amp;quot;style&amp;quot;:null,&amp;quot;start&amp;quot;:null,&amp;quot;backgroundColor&amp;quot;:null,&amp;quot;color&amp;quot;:null,&amp;quot;lineHeight&amp;quot;:null,&amp;quot;listStyleType&amp;quot;:null},&amp;quot;li&amp;quot;,{&amp;quot;style&amp;quot;:null,&amp;quot;checked&amp;quot;:null,&amp;quot;value&amp;quot;:null,&amp;quot;displayValue&amp;quot;:5,&amp;quot;backgroundColor&amp;quot;:null,&amp;quot;color&amp;quot;:null,&amp;quot;listStyleType&amp;quot;:null,&amp;quot;isCollapsed&amp;quot;:null,&amp;quot;draggable&amp;quot;:false,&amp;quot;firstLetterMarks&amp;quot;:[],&amp;quot;listNestingLevel&amp;quot;:1,&amp;quot;firstLetterTextKind&amp;quot;:&amp;quot;p&amp;quot;}]&quot; draggable=&quot;false&quot;&gt;&lt;font style=&quot;font-size: 13px;&quot;&gt;&lt;b style=&quot;&quot;&gt;5. Analyze Sources and Data&lt;/b&gt;&lt;/font&gt;&lt;/div&gt;&lt;div data-en-clipboard=&quot;true&quot; data-pm-slice=&quot;1 1 [&amp;quot;ol&amp;quot;,{&amp;quot;style&amp;quot;:null,&amp;quot;start&amp;quot;:null,&amp;quot;backgroundColor&amp;quot;:null,&amp;quot;color&amp;quot;:null,&amp;quot;lineHeight&amp;quot;:null,&amp;quot;listStyleType&amp;quot;:null},&amp;quot;li&amp;quot;,{&amp;quot;style&amp;quot;:null,&amp;quot;checked&amp;quot;:null,&amp;quot;value&amp;quot;:null,&amp;quot;displayValue&amp;quot;:5,&amp;quot;backgroundColor&amp;quot;:null,&amp;quot;color&amp;quot;:null,&amp;quot;listStyleType&amp;quot;:null,&amp;quot;isCollapsed&amp;quot;:null,&amp;quot;draggable&amp;quot;:false,&amp;quot;firstLetterMarks&amp;quot;:[],&amp;quot;listNestingLevel&amp;quot;:1,&amp;quot;firstLetterTextKind&amp;quot;:&amp;quot;p&amp;quot;}]&quot; draggable=&quot;false&quot;&gt;&lt;font style=&quot;font-size: 13px;&quot;&gt;&lt;b style=&quot;&quot;&gt;Extract, organize and interpret data from diverse documents&lt;/b&gt;&lt;/font&gt;&lt;/div&gt;&lt;/div&gt;&lt;/div&gt;&lt;/div&gt;" style="rounded=1;whiteSpace=wrap;html=1;fillColor=default;strokeColor=none;fontColor=#000000;shadow=1;" parent="1" vertex="1">
          <mxGeometry x="732" y="616.25" width="320" height="77.5" as="geometry" />
        </mxCell>
        <mxCell id="3B2o3bUjgvVKRlB_GJGi-46" value="&lt;div data-en-clipboard=&quot;true&quot; data-pm-slice=&quot;1 1 [&amp;quot;ol&amp;quot;,{&amp;quot;style&amp;quot;:null,&amp;quot;start&amp;quot;:null,&amp;quot;backgroundColor&amp;quot;:null,&amp;quot;color&amp;quot;:null,&amp;quot;lineHeight&amp;quot;:null,&amp;quot;listStyleType&amp;quot;:null},&amp;quot;li&amp;quot;,{&amp;quot;style&amp;quot;:null,&amp;quot;checked&amp;quot;:null,&amp;quot;value&amp;quot;:null,&amp;quot;displayValue&amp;quot;:1,&amp;quot;backgroundColor&amp;quot;:null,&amp;quot;color&amp;quot;:null,&amp;quot;listStyleType&amp;quot;:null,&amp;quot;isCollapsed&amp;quot;:null,&amp;quot;draggable&amp;quot;:false,&amp;quot;firstLetterMarks&amp;quot;:[],&amp;quot;listNestingLevel&amp;quot;:1,&amp;quot;firstLetterTextKind&amp;quot;:&amp;quot;p&amp;quot;}]&quot; draggable=&quot;false&quot;&gt;&lt;div data-en-clipboard=&quot;true&quot; data-pm-slice=&quot;1 1 [&amp;quot;ol&amp;quot;,{&amp;quot;style&amp;quot;:null,&amp;quot;start&amp;quot;:null,&amp;quot;backgroundColor&amp;quot;:null,&amp;quot;color&amp;quot;:null,&amp;quot;lineHeight&amp;quot;:null,&amp;quot;listStyleType&amp;quot;:null},&amp;quot;li&amp;quot;,{&amp;quot;style&amp;quot;:null,&amp;quot;checked&amp;quot;:null,&amp;quot;value&amp;quot;:null,&amp;quot;displayValue&amp;quot;:2,&amp;quot;backgroundColor&amp;quot;:null,&amp;quot;color&amp;quot;:null,&amp;quot;listStyleType&amp;quot;:null,&amp;quot;isCollapsed&amp;quot;:null,&amp;quot;draggable&amp;quot;:false,&amp;quot;firstLetterMarks&amp;quot;:[],&amp;quot;listNestingLevel&amp;quot;:1,&amp;quot;firstLetterTextKind&amp;quot;:&amp;quot;p&amp;quot;}]&quot; draggable=&quot;false&quot;&gt;&lt;div data-en-clipboard=&quot;true&quot; data-pm-slice=&quot;1 1 [&amp;quot;ol&amp;quot;,{&amp;quot;style&amp;quot;:null,&amp;quot;start&amp;quot;:null,&amp;quot;backgroundColor&amp;quot;:null,&amp;quot;color&amp;quot;:null,&amp;quot;lineHeight&amp;quot;:null,&amp;quot;listStyleType&amp;quot;:null},&amp;quot;li&amp;quot;,{&amp;quot;style&amp;quot;:null,&amp;quot;checked&amp;quot;:null,&amp;quot;value&amp;quot;:null,&amp;quot;displayValue&amp;quot;:3,&amp;quot;backgroundColor&amp;quot;:null,&amp;quot;color&amp;quot;:null,&amp;quot;listStyleType&amp;quot;:null,&amp;quot;isCollapsed&amp;quot;:null,&amp;quot;draggable&amp;quot;:false,&amp;quot;firstLetterMarks&amp;quot;:[],&amp;quot;listNestingLevel&amp;quot;:1,&amp;quot;firstLetterTextKind&amp;quot;:&amp;quot;p&amp;quot;}]&quot; draggable=&quot;false&quot;&gt;&lt;div data-en-clipboard=&quot;true&quot; data-pm-slice=&quot;1 1 [&amp;quot;ol&amp;quot;,{&amp;quot;style&amp;quot;:null,&amp;quot;start&amp;quot;:null,&amp;quot;backgroundColor&amp;quot;:null,&amp;quot;color&amp;quot;:null,&amp;quot;lineHeight&amp;quot;:null,&amp;quot;listStyleType&amp;quot;:null},&amp;quot;li&amp;quot;,{&amp;quot;style&amp;quot;:null,&amp;quot;checked&amp;quot;:null,&amp;quot;value&amp;quot;:null,&amp;quot;displayValue&amp;quot;:5,&amp;quot;backgroundColor&amp;quot;:null,&amp;quot;color&amp;quot;:null,&amp;quot;listStyleType&amp;quot;:null,&amp;quot;isCollapsed&amp;quot;:null,&amp;quot;draggable&amp;quot;:false,&amp;quot;firstLetterMarks&amp;quot;:[],&amp;quot;listNestingLevel&amp;quot;:1,&amp;quot;firstLetterTextKind&amp;quot;:&amp;quot;p&amp;quot;}]&quot; draggable=&quot;false&quot;&gt;&lt;div data-en-clipboard=&quot;true&quot; data-pm-slice=&quot;1 1 [&amp;quot;ol&amp;quot;,{&amp;quot;style&amp;quot;:null,&amp;quot;start&amp;quot;:null,&amp;quot;backgroundColor&amp;quot;:null,&amp;quot;color&amp;quot;:null,&amp;quot;lineHeight&amp;quot;:null,&amp;quot;listStyleType&amp;quot;:null},&amp;quot;li&amp;quot;,{&amp;quot;style&amp;quot;:null,&amp;quot;checked&amp;quot;:null,&amp;quot;value&amp;quot;:null,&amp;quot;displayValue&amp;quot;:6,&amp;quot;backgroundColor&amp;quot;:null,&amp;quot;color&amp;quot;:null,&amp;quot;listStyleType&amp;quot;:null,&amp;quot;isCollapsed&amp;quot;:null,&amp;quot;draggable&amp;quot;:false,&amp;quot;firstLetterMarks&amp;quot;:[],&amp;quot;listNestingLevel&amp;quot;:1,&amp;quot;firstLetterTextKind&amp;quot;:&amp;quot;p&amp;quot;}]&quot; draggable=&quot;false&quot;&gt;&lt;font style=&quot;font-size: 13px;&quot;&gt;&lt;b style=&quot;&quot;&gt;6. Build an Interpretive Argument&lt;/b&gt;&lt;/font&gt;&lt;/div&gt;&lt;div data-en-clipboard=&quot;true&quot; data-pm-slice=&quot;1 1 [&amp;quot;ol&amp;quot;,{&amp;quot;style&amp;quot;:null,&amp;quot;start&amp;quot;:null,&amp;quot;backgroundColor&amp;quot;:null,&amp;quot;color&amp;quot;:null,&amp;quot;lineHeight&amp;quot;:null,&amp;quot;listStyleType&amp;quot;:null},&amp;quot;li&amp;quot;,{&amp;quot;style&amp;quot;:null,&amp;quot;checked&amp;quot;:null,&amp;quot;value&amp;quot;:null,&amp;quot;displayValue&amp;quot;:6,&amp;quot;backgroundColor&amp;quot;:null,&amp;quot;color&amp;quot;:null,&amp;quot;listStyleType&amp;quot;:null,&amp;quot;isCollapsed&amp;quot;:null,&amp;quot;draggable&amp;quot;:false,&amp;quot;firstLetterMarks&amp;quot;:[],&amp;quot;listNestingLevel&amp;quot;:1,&amp;quot;firstLetterTextKind&amp;quot;:&amp;quot;p&amp;quot;}]&quot; draggable=&quot;false&quot;&gt;&lt;font style=&quot;font-size: 13px;&quot;&gt;&lt;b style=&quot;&quot;&gt;Transform analysis into structured historical interpretation&lt;/b&gt;&lt;/font&gt;&lt;/div&gt;&lt;/div&gt;&lt;/div&gt;&lt;/div&gt;&lt;/div&gt;" style="rounded=1;whiteSpace=wrap;html=1;fillColor=default;strokeColor=none;fontColor=#000000;shadow=1;" parent="1" vertex="1">
          <mxGeometry x="739" y="759" width="320" height="80" as="geometry" />
        </mxCell>
        <mxCell id="3B2o3bUjgvVKRlB_GJGi-48" value="&lt;div data-en-clipboard=&quot;true&quot; data-pm-slice=&quot;1 1 [&amp;quot;ol&amp;quot;,{&amp;quot;style&amp;quot;:null,&amp;quot;start&amp;quot;:null,&amp;quot;backgroundColor&amp;quot;:null,&amp;quot;color&amp;quot;:null,&amp;quot;lineHeight&amp;quot;:null,&amp;quot;listStyleType&amp;quot;:null},&amp;quot;li&amp;quot;,{&amp;quot;style&amp;quot;:null,&amp;quot;checked&amp;quot;:null,&amp;quot;value&amp;quot;:null,&amp;quot;displayValue&amp;quot;:1,&amp;quot;backgroundColor&amp;quot;:null,&amp;quot;color&amp;quot;:null,&amp;quot;listStyleType&amp;quot;:null,&amp;quot;isCollapsed&amp;quot;:null,&amp;quot;draggable&amp;quot;:false,&amp;quot;firstLetterMarks&amp;quot;:[],&amp;quot;listNestingLevel&amp;quot;:1,&amp;quot;firstLetterTextKind&amp;quot;:&amp;quot;p&amp;quot;}]&quot; draggable=&quot;false&quot;&gt;&lt;div data-en-clipboard=&quot;true&quot; data-pm-slice=&quot;1 1 [&amp;quot;ol&amp;quot;,{&amp;quot;style&amp;quot;:null,&amp;quot;start&amp;quot;:null,&amp;quot;backgroundColor&amp;quot;:null,&amp;quot;color&amp;quot;:null,&amp;quot;lineHeight&amp;quot;:null,&amp;quot;listStyleType&amp;quot;:null},&amp;quot;li&amp;quot;,{&amp;quot;style&amp;quot;:null,&amp;quot;checked&amp;quot;:null,&amp;quot;value&amp;quot;:null,&amp;quot;displayValue&amp;quot;:2,&amp;quot;backgroundColor&amp;quot;:null,&amp;quot;color&amp;quot;:null,&amp;quot;listStyleType&amp;quot;:null,&amp;quot;isCollapsed&amp;quot;:null,&amp;quot;draggable&amp;quot;:false,&amp;quot;firstLetterMarks&amp;quot;:[],&amp;quot;listNestingLevel&amp;quot;:1,&amp;quot;firstLetterTextKind&amp;quot;:&amp;quot;p&amp;quot;}]&quot; draggable=&quot;false&quot;&gt;&lt;div data-en-clipboard=&quot;true&quot; data-pm-slice=&quot;1 1 [&amp;quot;ol&amp;quot;,{&amp;quot;style&amp;quot;:null,&amp;quot;start&amp;quot;:null,&amp;quot;backgroundColor&amp;quot;:null,&amp;quot;color&amp;quot;:null,&amp;quot;lineHeight&amp;quot;:null,&amp;quot;listStyleType&amp;quot;:null},&amp;quot;li&amp;quot;,{&amp;quot;style&amp;quot;:null,&amp;quot;checked&amp;quot;:null,&amp;quot;value&amp;quot;:null,&amp;quot;displayValue&amp;quot;:3,&amp;quot;backgroundColor&amp;quot;:null,&amp;quot;color&amp;quot;:null,&amp;quot;listStyleType&amp;quot;:null,&amp;quot;isCollapsed&amp;quot;:null,&amp;quot;draggable&amp;quot;:false,&amp;quot;firstLetterMarks&amp;quot;:[],&amp;quot;listNestingLevel&amp;quot;:1,&amp;quot;firstLetterTextKind&amp;quot;:&amp;quot;p&amp;quot;}]&quot; draggable=&quot;false&quot;&gt;&lt;div data-en-clipboard=&quot;true&quot; data-pm-slice=&quot;1 1 [&amp;quot;ol&amp;quot;,{&amp;quot;style&amp;quot;:null,&amp;quot;start&amp;quot;:null,&amp;quot;backgroundColor&amp;quot;:null,&amp;quot;color&amp;quot;:null,&amp;quot;lineHeight&amp;quot;:null,&amp;quot;listStyleType&amp;quot;:null},&amp;quot;li&amp;quot;,{&amp;quot;style&amp;quot;:null,&amp;quot;checked&amp;quot;:null,&amp;quot;value&amp;quot;:null,&amp;quot;displayValue&amp;quot;:5,&amp;quot;backgroundColor&amp;quot;:null,&amp;quot;color&amp;quot;:null,&amp;quot;listStyleType&amp;quot;:null,&amp;quot;isCollapsed&amp;quot;:null,&amp;quot;draggable&amp;quot;:false,&amp;quot;firstLetterMarks&amp;quot;:[],&amp;quot;listNestingLevel&amp;quot;:1,&amp;quot;firstLetterTextKind&amp;quot;:&amp;quot;p&amp;quot;}]&quot; draggable=&quot;false&quot;&gt;&lt;div data-en-clipboard=&quot;true&quot; data-pm-slice=&quot;1 1 [&amp;quot;ol&amp;quot;,{&amp;quot;style&amp;quot;:null,&amp;quot;start&amp;quot;:null,&amp;quot;backgroundColor&amp;quot;:null,&amp;quot;color&amp;quot;:null,&amp;quot;lineHeight&amp;quot;:null,&amp;quot;listStyleType&amp;quot;:null},&amp;quot;li&amp;quot;,{&amp;quot;style&amp;quot;:null,&amp;quot;checked&amp;quot;:null,&amp;quot;value&amp;quot;:null,&amp;quot;displayValue&amp;quot;:6,&amp;quot;backgroundColor&amp;quot;:null,&amp;quot;color&amp;quot;:null,&amp;quot;listStyleType&amp;quot;:null,&amp;quot;isCollapsed&amp;quot;:null,&amp;quot;draggable&amp;quot;:false,&amp;quot;firstLetterMarks&amp;quot;:[],&amp;quot;listNestingLevel&amp;quot;:1,&amp;quot;firstLetterTextKind&amp;quot;:&amp;quot;p&amp;quot;}]&quot; draggable=&quot;false&quot;&gt;&lt;div data-en-clipboard=&quot;true&quot; data-pm-slice=&quot;1 1 [&amp;quot;ol&amp;quot;,{&amp;quot;style&amp;quot;:null,&amp;quot;start&amp;quot;:null,&amp;quot;backgroundColor&amp;quot;:null,&amp;quot;color&amp;quot;:null,&amp;quot;lineHeight&amp;quot;:null,&amp;quot;listStyleType&amp;quot;:null},&amp;quot;li&amp;quot;,{&amp;quot;style&amp;quot;:null,&amp;quot;checked&amp;quot;:null,&amp;quot;value&amp;quot;:null,&amp;quot;displayValue&amp;quot;:7,&amp;quot;backgroundColor&amp;quot;:null,&amp;quot;color&amp;quot;:null,&amp;quot;listStyleType&amp;quot;:null,&amp;quot;isCollapsed&amp;quot;:null,&amp;quot;draggable&amp;quot;:false,&amp;quot;firstLetterMarks&amp;quot;:[],&amp;quot;listNestingLevel&amp;quot;:1,&amp;quot;firstLetterTextKind&amp;quot;:&amp;quot;p&amp;quot;}]&quot; draggable=&quot;false&quot;&gt;&lt;font style=&quot;font-size: 13px;&quot;&gt;&lt;b style=&quot;&quot;&gt;7. Draft narrative, polish arguments&lt;/b&gt;&lt;/font&gt;&lt;/div&gt;&lt;div data-en-clipboard=&quot;true&quot; data-pm-slice=&quot;1 1 [&amp;quot;ol&amp;quot;,{&amp;quot;style&amp;quot;:null,&amp;quot;start&amp;quot;:null,&amp;quot;backgroundColor&amp;quot;:null,&amp;quot;color&amp;quot;:null,&amp;quot;lineHeight&amp;quot;:null,&amp;quot;listStyleType&amp;quot;:null},&amp;quot;li&amp;quot;,{&amp;quot;style&amp;quot;:null,&amp;quot;checked&amp;quot;:null,&amp;quot;value&amp;quot;:null,&amp;quot;displayValue&amp;quot;:7,&amp;quot;backgroundColor&amp;quot;:null,&amp;quot;color&amp;quot;:null,&amp;quot;listStyleType&amp;quot;:null,&amp;quot;isCollapsed&amp;quot;:null,&amp;quot;draggable&amp;quot;:false,&amp;quot;firstLetterMarks&amp;quot;:[],&amp;quot;listNestingLevel&amp;quot;:1,&amp;quot;firstLetterTextKind&amp;quot;:&amp;quot;p&amp;quot;}]&quot; draggable=&quot;false&quot;&gt;&lt;font style=&quot;font-size: 13px;&quot;&gt;&lt;b style=&quot;&quot;&gt;Ensure clarity and coherence&lt;/b&gt;&lt;/font&gt;&lt;/div&gt;&lt;/div&gt;&lt;/div&gt;&lt;/div&gt;&lt;/div&gt;&lt;/div&gt;" style="rounded=1;whiteSpace=wrap;html=1;fillColor=default;strokeColor=none;fontColor=#000000;shadow=1;" parent="1" vertex="1">
          <mxGeometry x="739" y="910" width="320" height="80" as="geometry" />
        </mxCell>
        <mxCell id="3B2o3bUjgvVKRlB_GJGi-50" value="&lt;div data-en-clipboard=&quot;true&quot; data-pm-slice=&quot;1 1 [&amp;quot;ol&amp;quot;,{&amp;quot;style&amp;quot;:null,&amp;quot;start&amp;quot;:null,&amp;quot;backgroundColor&amp;quot;:null,&amp;quot;color&amp;quot;:null,&amp;quot;lineHeight&amp;quot;:null,&amp;quot;listStyleType&amp;quot;:null},&amp;quot;li&amp;quot;,{&amp;quot;style&amp;quot;:null,&amp;quot;checked&amp;quot;:null,&amp;quot;value&amp;quot;:null,&amp;quot;displayValue&amp;quot;:1,&amp;quot;backgroundColor&amp;quot;:null,&amp;quot;color&amp;quot;:null,&amp;quot;listStyleType&amp;quot;:null,&amp;quot;isCollapsed&amp;quot;:null,&amp;quot;draggable&amp;quot;:false,&amp;quot;firstLetterMarks&amp;quot;:[],&amp;quot;listNestingLevel&amp;quot;:1,&amp;quot;firstLetterTextKind&amp;quot;:&amp;quot;p&amp;quot;}]&quot; draggable=&quot;false&quot;&gt;&lt;div data-en-clipboard=&quot;true&quot; data-pm-slice=&quot;1 1 [&amp;quot;ol&amp;quot;,{&amp;quot;style&amp;quot;:null,&amp;quot;start&amp;quot;:null,&amp;quot;backgroundColor&amp;quot;:null,&amp;quot;color&amp;quot;:null,&amp;quot;lineHeight&amp;quot;:null,&amp;quot;listStyleType&amp;quot;:null},&amp;quot;li&amp;quot;,{&amp;quot;style&amp;quot;:null,&amp;quot;checked&amp;quot;:null,&amp;quot;value&amp;quot;:null,&amp;quot;displayValue&amp;quot;:2,&amp;quot;backgroundColor&amp;quot;:null,&amp;quot;color&amp;quot;:null,&amp;quot;listStyleType&amp;quot;:null,&amp;quot;isCollapsed&amp;quot;:null,&amp;quot;draggable&amp;quot;:false,&amp;quot;firstLetterMarks&amp;quot;:[],&amp;quot;listNestingLevel&amp;quot;:1,&amp;quot;firstLetterTextKind&amp;quot;:&amp;quot;p&amp;quot;}]&quot; draggable=&quot;false&quot;&gt;&lt;div data-en-clipboard=&quot;true&quot; data-pm-slice=&quot;1 1 [&amp;quot;ol&amp;quot;,{&amp;quot;style&amp;quot;:null,&amp;quot;start&amp;quot;:null,&amp;quot;backgroundColor&amp;quot;:null,&amp;quot;color&amp;quot;:null,&amp;quot;lineHeight&amp;quot;:null,&amp;quot;listStyleType&amp;quot;:null},&amp;quot;li&amp;quot;,{&amp;quot;style&amp;quot;:null,&amp;quot;checked&amp;quot;:null,&amp;quot;value&amp;quot;:null,&amp;quot;displayValue&amp;quot;:3,&amp;quot;backgroundColor&amp;quot;:null,&amp;quot;color&amp;quot;:null,&amp;quot;listStyleType&amp;quot;:null,&amp;quot;isCollapsed&amp;quot;:null,&amp;quot;draggable&amp;quot;:false,&amp;quot;firstLetterMarks&amp;quot;:[],&amp;quot;listNestingLevel&amp;quot;:1,&amp;quot;firstLetterTextKind&amp;quot;:&amp;quot;p&amp;quot;}]&quot; draggable=&quot;false&quot;&gt;&lt;div data-en-clipboard=&quot;true&quot; data-pm-slice=&quot;1 1 [&amp;quot;ol&amp;quot;,{&amp;quot;style&amp;quot;:null,&amp;quot;start&amp;quot;:null,&amp;quot;backgroundColor&amp;quot;:null,&amp;quot;color&amp;quot;:null,&amp;quot;lineHeight&amp;quot;:null,&amp;quot;listStyleType&amp;quot;:null},&amp;quot;li&amp;quot;,{&amp;quot;style&amp;quot;:null,&amp;quot;checked&amp;quot;:null,&amp;quot;value&amp;quot;:null,&amp;quot;displayValue&amp;quot;:5,&amp;quot;backgroundColor&amp;quot;:null,&amp;quot;color&amp;quot;:null,&amp;quot;listStyleType&amp;quot;:null,&amp;quot;isCollapsed&amp;quot;:null,&amp;quot;draggable&amp;quot;:false,&amp;quot;firstLetterMarks&amp;quot;:[],&amp;quot;listNestingLevel&amp;quot;:1,&amp;quot;firstLetterTextKind&amp;quot;:&amp;quot;p&amp;quot;}]&quot; draggable=&quot;false&quot;&gt;&lt;div data-en-clipboard=&quot;true&quot; data-pm-slice=&quot;1 1 [&amp;quot;ol&amp;quot;,{&amp;quot;style&amp;quot;:null,&amp;quot;start&amp;quot;:null,&amp;quot;backgroundColor&amp;quot;:null,&amp;quot;color&amp;quot;:null,&amp;quot;lineHeight&amp;quot;:null,&amp;quot;listStyleType&amp;quot;:null},&amp;quot;li&amp;quot;,{&amp;quot;style&amp;quot;:null,&amp;quot;checked&amp;quot;:null,&amp;quot;value&amp;quot;:null,&amp;quot;displayValue&amp;quot;:6,&amp;quot;backgroundColor&amp;quot;:null,&amp;quot;color&amp;quot;:null,&amp;quot;listStyleType&amp;quot;:null,&amp;quot;isCollapsed&amp;quot;:null,&amp;quot;draggable&amp;quot;:false,&amp;quot;firstLetterMarks&amp;quot;:[],&amp;quot;listNestingLevel&amp;quot;:1,&amp;quot;firstLetterTextKind&amp;quot;:&amp;quot;p&amp;quot;}]&quot; draggable=&quot;false&quot;&gt;&lt;div data-en-clipboard=&quot;true&quot; data-pm-slice=&quot;1 1 [&amp;quot;ol&amp;quot;,{&amp;quot;style&amp;quot;:null,&amp;quot;start&amp;quot;:null,&amp;quot;backgroundColor&amp;quot;:null,&amp;quot;color&amp;quot;:null,&amp;quot;lineHeight&amp;quot;:null,&amp;quot;listStyleType&amp;quot;:null},&amp;quot;li&amp;quot;,{&amp;quot;style&amp;quot;:null,&amp;quot;checked&amp;quot;:null,&amp;quot;value&amp;quot;:null,&amp;quot;displayValue&amp;quot;:7,&amp;quot;backgroundColor&amp;quot;:null,&amp;quot;color&amp;quot;:null,&amp;quot;listStyleType&amp;quot;:null,&amp;quot;isCollapsed&amp;quot;:null,&amp;quot;draggable&amp;quot;:false,&amp;quot;firstLetterMarks&amp;quot;:[],&amp;quot;listNestingLevel&amp;quot;:1,&amp;quot;firstLetterTextKind&amp;quot;:&amp;quot;p&amp;quot;}]&quot; draggable=&quot;false&quot;&gt;&lt;div data-en-clipboard=&quot;true&quot; data-pm-slice=&quot;1 1 [&amp;quot;ol&amp;quot;,{&amp;quot;style&amp;quot;:null,&amp;quot;start&amp;quot;:null,&amp;quot;backgroundColor&amp;quot;:null,&amp;quot;color&amp;quot;:null,&amp;quot;lineHeight&amp;quot;:null,&amp;quot;listStyleType&amp;quot;:null},&amp;quot;li&amp;quot;,{&amp;quot;style&amp;quot;:null,&amp;quot;checked&amp;quot;:null,&amp;quot;value&amp;quot;:null,&amp;quot;displayValue&amp;quot;:6,&amp;quot;backgroundColor&amp;quot;:null,&amp;quot;color&amp;quot;:null,&amp;quot;listStyleType&amp;quot;:null,&amp;quot;isCollapsed&amp;quot;:null,&amp;quot;draggable&amp;quot;:false,&amp;quot;firstLetterMarks&amp;quot;:[],&amp;quot;listNestingLevel&amp;quot;:1,&amp;quot;firstLetterTextKind&amp;quot;:&amp;quot;p&amp;quot;}]&quot; draggable=&quot;false&quot;&gt;&lt;div data-en-clipboard=&quot;true&quot; data-pm-slice=&quot;1 1 [&amp;quot;ol&amp;quot;,{&amp;quot;style&amp;quot;:null,&amp;quot;start&amp;quot;:null,&amp;quot;backgroundColor&amp;quot;:null,&amp;quot;color&amp;quot;:null,&amp;quot;lineHeight&amp;quot;:null,&amp;quot;listStyleType&amp;quot;:null},&amp;quot;li&amp;quot;,{&amp;quot;style&amp;quot;:null,&amp;quot;checked&amp;quot;:null,&amp;quot;value&amp;quot;:null,&amp;quot;displayValue&amp;quot;:4,&amp;quot;backgroundColor&amp;quot;:null,&amp;quot;color&amp;quot;:null,&amp;quot;listStyleType&amp;quot;:null,&amp;quot;isCollapsed&amp;quot;:null,&amp;quot;draggable&amp;quot;:false,&amp;quot;firstLetterMarks&amp;quot;:[],&amp;quot;listNestingLevel&amp;quot;:1,&amp;quot;firstLetterTextKind&amp;quot;:&amp;quot;p&amp;quot;}]&quot; draggable=&quot;false&quot;&gt;&lt;font style=&quot;font-size: 13px;&quot;&gt;&lt;b style=&quot;&quot;&gt;4. Locate and Collect Primary Sources&lt;/b&gt;&lt;/font&gt;&lt;/div&gt;&lt;div data-en-clipboard=&quot;true&quot; data-pm-slice=&quot;1 1 [&amp;quot;ol&amp;quot;,{&amp;quot;style&amp;quot;:null,&amp;quot;start&amp;quot;:null,&amp;quot;backgroundColor&amp;quot;:null,&amp;quot;color&amp;quot;:null,&amp;quot;lineHeight&amp;quot;:null,&amp;quot;listStyleType&amp;quot;:null},&amp;quot;li&amp;quot;,{&amp;quot;style&amp;quot;:null,&amp;quot;checked&amp;quot;:null,&amp;quot;value&amp;quot;:null,&amp;quot;displayValue&amp;quot;:4,&amp;quot;backgroundColor&amp;quot;:null,&amp;quot;color&amp;quot;:null,&amp;quot;listStyleType&amp;quot;:null,&amp;quot;isCollapsed&amp;quot;:null,&amp;quot;draggable&amp;quot;:false,&amp;quot;firstLetterMarks&amp;quot;:[],&amp;quot;listNestingLevel&amp;quot;:1,&amp;quot;firstLetterTextKind&amp;quot;:&amp;quot;p&amp;quot;}]&quot; draggable=&quot;false&quot;&gt;&lt;font style=&quot;font-size: 13px;&quot;&gt;&lt;b style=&quot;&quot;&gt;Identify, retrieve, and prepare primary materials&lt;/b&gt;&lt;/font&gt;&lt;/div&gt;&lt;/div&gt;&lt;/div&gt;&lt;/div&gt;&lt;/div&gt;&lt;/div&gt;&lt;/div&gt;&lt;/div&gt;" style="rounded=1;whiteSpace=wrap;html=1;fillColor=default;strokeColor=none;fontColor=#000000;shadow=1;" parent="1" vertex="1">
          <mxGeometry x="734" y="480" width="320" height="80" as="geometry" />
        </mxCell>
        <mxCell id="3B2o3bUjgvVKRlB_GJGi-52" value="&lt;div data-en-clipboard=&quot;true&quot; data-pm-slice=&quot;1 1 [&amp;quot;ol&amp;quot;,{&amp;quot;style&amp;quot;:null,&amp;quot;start&amp;quot;:null,&amp;quot;backgroundColor&amp;quot;:null,&amp;quot;color&amp;quot;:null,&amp;quot;lineHeight&amp;quot;:null,&amp;quot;listStyleType&amp;quot;:null},&amp;quot;li&amp;quot;,{&amp;quot;style&amp;quot;:null,&amp;quot;checked&amp;quot;:null,&amp;quot;value&amp;quot;:null,&amp;quot;displayValue&amp;quot;:1,&amp;quot;backgroundColor&amp;quot;:null,&amp;quot;color&amp;quot;:null,&amp;quot;listStyleType&amp;quot;:null,&amp;quot;isCollapsed&amp;quot;:null,&amp;quot;draggable&amp;quot;:false,&amp;quot;firstLetterMarks&amp;quot;:[],&amp;quot;listNestingLevel&amp;quot;:1,&amp;quot;firstLetterTextKind&amp;quot;:&amp;quot;p&amp;quot;}]&quot; draggable=&quot;false&quot;&gt;&lt;div data-en-clipboard=&quot;true&quot; data-pm-slice=&quot;1 1 [&amp;quot;ol&amp;quot;,{&amp;quot;style&amp;quot;:null,&amp;quot;start&amp;quot;:null,&amp;quot;backgroundColor&amp;quot;:null,&amp;quot;color&amp;quot;:null,&amp;quot;lineHeight&amp;quot;:null,&amp;quot;listStyleType&amp;quot;:null},&amp;quot;li&amp;quot;,{&amp;quot;style&amp;quot;:null,&amp;quot;checked&amp;quot;:null,&amp;quot;value&amp;quot;:null,&amp;quot;displayValue&amp;quot;:2,&amp;quot;backgroundColor&amp;quot;:null,&amp;quot;color&amp;quot;:null,&amp;quot;listStyleType&amp;quot;:null,&amp;quot;isCollapsed&amp;quot;:null,&amp;quot;draggable&amp;quot;:false,&amp;quot;firstLetterMarks&amp;quot;:[],&amp;quot;listNestingLevel&amp;quot;:1,&amp;quot;firstLetterTextKind&amp;quot;:&amp;quot;p&amp;quot;}]&quot; draggable=&quot;false&quot;&gt;&lt;div data-en-clipboard=&quot;true&quot; data-pm-slice=&quot;1 1 [&amp;quot;ol&amp;quot;,{&amp;quot;style&amp;quot;:null,&amp;quot;start&amp;quot;:null,&amp;quot;backgroundColor&amp;quot;:null,&amp;quot;color&amp;quot;:null,&amp;quot;lineHeight&amp;quot;:null,&amp;quot;listStyleType&amp;quot;:null},&amp;quot;li&amp;quot;,{&amp;quot;style&amp;quot;:null,&amp;quot;checked&amp;quot;:null,&amp;quot;value&amp;quot;:null,&amp;quot;displayValue&amp;quot;:3,&amp;quot;backgroundColor&amp;quot;:null,&amp;quot;color&amp;quot;:null,&amp;quot;listStyleType&amp;quot;:null,&amp;quot;isCollapsed&amp;quot;:null,&amp;quot;draggable&amp;quot;:false,&amp;quot;firstLetterMarks&amp;quot;:[],&amp;quot;listNestingLevel&amp;quot;:1,&amp;quot;firstLetterTextKind&amp;quot;:&amp;quot;p&amp;quot;}]&quot; draggable=&quot;false&quot;&gt;&lt;div data-en-clipboard=&quot;true&quot; data-pm-slice=&quot;1 1 [&amp;quot;ol&amp;quot;,{&amp;quot;style&amp;quot;:null,&amp;quot;start&amp;quot;:null,&amp;quot;backgroundColor&amp;quot;:null,&amp;quot;color&amp;quot;:null,&amp;quot;lineHeight&amp;quot;:null,&amp;quot;listStyleType&amp;quot;:null},&amp;quot;li&amp;quot;,{&amp;quot;style&amp;quot;:null,&amp;quot;checked&amp;quot;:null,&amp;quot;value&amp;quot;:null,&amp;quot;displayValue&amp;quot;:5,&amp;quot;backgroundColor&amp;quot;:null,&amp;quot;color&amp;quot;:null,&amp;quot;listStyleType&amp;quot;:null,&amp;quot;isCollapsed&amp;quot;:null,&amp;quot;draggable&amp;quot;:false,&amp;quot;firstLetterMarks&amp;quot;:[],&amp;quot;listNestingLevel&amp;quot;:1,&amp;quot;firstLetterTextKind&amp;quot;:&amp;quot;p&amp;quot;}]&quot; draggable=&quot;false&quot;&gt;&lt;div data-en-clipboard=&quot;true&quot; data-pm-slice=&quot;1 1 [&amp;quot;ol&amp;quot;,{&amp;quot;style&amp;quot;:null,&amp;quot;start&amp;quot;:null,&amp;quot;backgroundColor&amp;quot;:null,&amp;quot;color&amp;quot;:null,&amp;quot;lineHeight&amp;quot;:null,&amp;quot;listStyleType&amp;quot;:null},&amp;quot;li&amp;quot;,{&amp;quot;style&amp;quot;:null,&amp;quot;checked&amp;quot;:null,&amp;quot;value&amp;quot;:null,&amp;quot;displayValue&amp;quot;:6,&amp;quot;backgroundColor&amp;quot;:null,&amp;quot;color&amp;quot;:null,&amp;quot;listStyleType&amp;quot;:null,&amp;quot;isCollapsed&amp;quot;:null,&amp;quot;draggable&amp;quot;:false,&amp;quot;firstLetterMarks&amp;quot;:[],&amp;quot;listNestingLevel&amp;quot;:1,&amp;quot;firstLetterTextKind&amp;quot;:&amp;quot;p&amp;quot;}]&quot; draggable=&quot;false&quot;&gt;&lt;div data-en-clipboard=&quot;true&quot; data-pm-slice=&quot;1 1 [&amp;quot;ol&amp;quot;,{&amp;quot;style&amp;quot;:null,&amp;quot;start&amp;quot;:null,&amp;quot;backgroundColor&amp;quot;:null,&amp;quot;color&amp;quot;:null,&amp;quot;lineHeight&amp;quot;:null,&amp;quot;listStyleType&amp;quot;:null},&amp;quot;li&amp;quot;,{&amp;quot;style&amp;quot;:null,&amp;quot;checked&amp;quot;:null,&amp;quot;value&amp;quot;:null,&amp;quot;displayValue&amp;quot;:7,&amp;quot;backgroundColor&amp;quot;:null,&amp;quot;color&amp;quot;:null,&amp;quot;listStyleType&amp;quot;:null,&amp;quot;isCollapsed&amp;quot;:null,&amp;quot;draggable&amp;quot;:false,&amp;quot;firstLetterMarks&amp;quot;:[],&amp;quot;listNestingLevel&amp;quot;:1,&amp;quot;firstLetterTextKind&amp;quot;:&amp;quot;p&amp;quot;}]&quot; draggable=&quot;false&quot;&gt;&lt;div data-en-clipboard=&quot;true&quot; data-pm-slice=&quot;1 1 [&amp;quot;ol&amp;quot;,{&amp;quot;style&amp;quot;:null,&amp;quot;start&amp;quot;:null,&amp;quot;backgroundColor&amp;quot;:null,&amp;quot;color&amp;quot;:null,&amp;quot;lineHeight&amp;quot;:null,&amp;quot;listStyleType&amp;quot;:null},&amp;quot;li&amp;quot;,{&amp;quot;style&amp;quot;:null,&amp;quot;checked&amp;quot;:null,&amp;quot;value&amp;quot;:null,&amp;quot;displayValue&amp;quot;:8,&amp;quot;backgroundColor&amp;quot;:null,&amp;quot;color&amp;quot;:null,&amp;quot;listStyleType&amp;quot;:null,&amp;quot;isCollapsed&amp;quot;:null,&amp;quot;draggable&amp;quot;:false,&amp;quot;firstLetterMarks&amp;quot;:[],&amp;quot;listNestingLevel&amp;quot;:1,&amp;quot;firstLetterTextKind&amp;quot;:&amp;quot;p&amp;quot;}]&quot; draggable=&quot;false&quot;&gt;&lt;font style=&quot;font-size: 13px;&quot;&gt;&lt;b style=&quot;&quot;&gt;9. Disseminate and Engage&lt;/b&gt;&lt;/font&gt;&lt;/div&gt;&lt;div data-en-clipboard=&quot;true&quot; data-pm-slice=&quot;1 1 [&amp;quot;ol&amp;quot;,{&amp;quot;style&amp;quot;:null,&amp;quot;start&amp;quot;:null,&amp;quot;backgroundColor&amp;quot;:null,&amp;quot;color&amp;quot;:null,&amp;quot;lineHeight&amp;quot;:null,&amp;quot;listStyleType&amp;quot;:null},&amp;quot;li&amp;quot;,{&amp;quot;style&amp;quot;:null,&amp;quot;checked&amp;quot;:null,&amp;quot;value&amp;quot;:null,&amp;quot;displayValue&amp;quot;:8,&amp;quot;backgroundColor&amp;quot;:null,&amp;quot;color&amp;quot;:null,&amp;quot;listStyleType&amp;quot;:null,&amp;quot;isCollapsed&amp;quot;:null,&amp;quot;draggable&amp;quot;:false,&amp;quot;firstLetterMarks&amp;quot;:[],&amp;quot;listNestingLevel&amp;quot;:1,&amp;quot;firstLetterTextKind&amp;quot;:&amp;quot;p&amp;quot;}]&quot; draggable=&quot;false&quot;&gt;&lt;font style=&quot;font-size: 13px;&quot;&gt;&lt;b style=&quot;&quot;&gt;Publish, share, and present findings across academic and public platforms&lt;/b&gt;&lt;/font&gt;&lt;/div&gt;&lt;/div&gt;&lt;/div&gt;&lt;/div&gt;&lt;/div&gt;&lt;/div&gt;&lt;/div&gt;" style="rounded=1;whiteSpace=wrap;html=1;fillColor=default;strokeColor=none;fontColor=#000000;shadow=1;" parent="1" vertex="1">
          <mxGeometry x="715" y="1168" width="370" height="72" as="geometry" />
        </mxCell>
        <mxCell id="3B2o3bUjgvVKRlB_GJGi-54" value="&lt;div data-en-clipboard=&quot;true&quot; data-pm-slice=&quot;1 1 [&amp;quot;ol&amp;quot;,{&amp;quot;style&amp;quot;:null,&amp;quot;start&amp;quot;:null,&amp;quot;backgroundColor&amp;quot;:null,&amp;quot;color&amp;quot;:null,&amp;quot;lineHeight&amp;quot;:null,&amp;quot;listStyleType&amp;quot;:null},&amp;quot;li&amp;quot;,{&amp;quot;style&amp;quot;:null,&amp;quot;checked&amp;quot;:null,&amp;quot;value&amp;quot;:null,&amp;quot;displayValue&amp;quot;:1,&amp;quot;backgroundColor&amp;quot;:null,&amp;quot;color&amp;quot;:null,&amp;quot;listStyleType&amp;quot;:null,&amp;quot;isCollapsed&amp;quot;:null,&amp;quot;draggable&amp;quot;:false,&amp;quot;firstLetterMarks&amp;quot;:[],&amp;quot;listNestingLevel&amp;quot;:1,&amp;quot;firstLetterTextKind&amp;quot;:&amp;quot;p&amp;quot;}]&quot; draggable=&quot;false&quot;&gt;&lt;div data-en-clipboard=&quot;true&quot; data-pm-slice=&quot;1 1 [&amp;quot;ol&amp;quot;,{&amp;quot;style&amp;quot;:null,&amp;quot;start&amp;quot;:null,&amp;quot;backgroundColor&amp;quot;:null,&amp;quot;color&amp;quot;:null,&amp;quot;lineHeight&amp;quot;:null,&amp;quot;listStyleType&amp;quot;:null},&amp;quot;li&amp;quot;,{&amp;quot;style&amp;quot;:null,&amp;quot;checked&amp;quot;:null,&amp;quot;value&amp;quot;:null,&amp;quot;displayValue&amp;quot;:2,&amp;quot;backgroundColor&amp;quot;:null,&amp;quot;color&amp;quot;:null,&amp;quot;listStyleType&amp;quot;:null,&amp;quot;isCollapsed&amp;quot;:null,&amp;quot;draggable&amp;quot;:false,&amp;quot;firstLetterMarks&amp;quot;:[],&amp;quot;listNestingLevel&amp;quot;:1,&amp;quot;firstLetterTextKind&amp;quot;:&amp;quot;p&amp;quot;}]&quot; draggable=&quot;false&quot;&gt;&lt;div data-en-clipboard=&quot;true&quot; data-pm-slice=&quot;1 1 [&amp;quot;ol&amp;quot;,{&amp;quot;style&amp;quot;:null,&amp;quot;start&amp;quot;:null,&amp;quot;backgroundColor&amp;quot;:null,&amp;quot;color&amp;quot;:null,&amp;quot;lineHeight&amp;quot;:null,&amp;quot;listStyleType&amp;quot;:null},&amp;quot;li&amp;quot;,{&amp;quot;style&amp;quot;:null,&amp;quot;checked&amp;quot;:null,&amp;quot;value&amp;quot;:null,&amp;quot;displayValue&amp;quot;:3,&amp;quot;backgroundColor&amp;quot;:null,&amp;quot;color&amp;quot;:null,&amp;quot;listStyleType&amp;quot;:null,&amp;quot;isCollapsed&amp;quot;:null,&amp;quot;draggable&amp;quot;:false,&amp;quot;firstLetterMarks&amp;quot;:[],&amp;quot;listNestingLevel&amp;quot;:1,&amp;quot;firstLetterTextKind&amp;quot;:&amp;quot;p&amp;quot;}]&quot; draggable=&quot;false&quot;&gt;&lt;div data-en-clipboard=&quot;true&quot; data-pm-slice=&quot;1 1 [&amp;quot;ol&amp;quot;,{&amp;quot;style&amp;quot;:null,&amp;quot;start&amp;quot;:null,&amp;quot;backgroundColor&amp;quot;:null,&amp;quot;color&amp;quot;:null,&amp;quot;lineHeight&amp;quot;:null,&amp;quot;listStyleType&amp;quot;:null},&amp;quot;li&amp;quot;,{&amp;quot;style&amp;quot;:null,&amp;quot;checked&amp;quot;:null,&amp;quot;value&amp;quot;:null,&amp;quot;displayValue&amp;quot;:5,&amp;quot;backgroundColor&amp;quot;:null,&amp;quot;color&amp;quot;:null,&amp;quot;listStyleType&amp;quot;:null,&amp;quot;isCollapsed&amp;quot;:null,&amp;quot;draggable&amp;quot;:false,&amp;quot;firstLetterMarks&amp;quot;:[],&amp;quot;listNestingLevel&amp;quot;:1,&amp;quot;firstLetterTextKind&amp;quot;:&amp;quot;p&amp;quot;}]&quot; draggable=&quot;false&quot;&gt;&lt;div data-en-clipboard=&quot;true&quot; data-pm-slice=&quot;1 1 [&amp;quot;ol&amp;quot;,{&amp;quot;style&amp;quot;:null,&amp;quot;start&amp;quot;:null,&amp;quot;backgroundColor&amp;quot;:null,&amp;quot;color&amp;quot;:null,&amp;quot;lineHeight&amp;quot;:null,&amp;quot;listStyleType&amp;quot;:null},&amp;quot;li&amp;quot;,{&amp;quot;style&amp;quot;:null,&amp;quot;checked&amp;quot;:null,&amp;quot;value&amp;quot;:null,&amp;quot;displayValue&amp;quot;:6,&amp;quot;backgroundColor&amp;quot;:null,&amp;quot;color&amp;quot;:null,&amp;quot;listStyleType&amp;quot;:null,&amp;quot;isCollapsed&amp;quot;:null,&amp;quot;draggable&amp;quot;:false,&amp;quot;firstLetterMarks&amp;quot;:[],&amp;quot;listNestingLevel&amp;quot;:1,&amp;quot;firstLetterTextKind&amp;quot;:&amp;quot;p&amp;quot;}]&quot; draggable=&quot;false&quot;&gt;&lt;div data-en-clipboard=&quot;true&quot; data-pm-slice=&quot;1 1 [&amp;quot;ol&amp;quot;,{&amp;quot;style&amp;quot;:null,&amp;quot;start&amp;quot;:null,&amp;quot;backgroundColor&amp;quot;:null,&amp;quot;color&amp;quot;:null,&amp;quot;lineHeight&amp;quot;:null,&amp;quot;listStyleType&amp;quot;:null},&amp;quot;li&amp;quot;,{&amp;quot;style&amp;quot;:null,&amp;quot;checked&amp;quot;:null,&amp;quot;value&amp;quot;:null,&amp;quot;displayValue&amp;quot;:7,&amp;quot;backgroundColor&amp;quot;:null,&amp;quot;color&amp;quot;:null,&amp;quot;listStyleType&amp;quot;:null,&amp;quot;isCollapsed&amp;quot;:null,&amp;quot;draggable&amp;quot;:false,&amp;quot;firstLetterMarks&amp;quot;:[],&amp;quot;listNestingLevel&amp;quot;:1,&amp;quot;firstLetterTextKind&amp;quot;:&amp;quot;p&amp;quot;}]&quot; draggable=&quot;false&quot;&gt;&lt;div data-en-clipboard=&quot;true&quot; data-pm-slice=&quot;1 1 [&amp;quot;ol&amp;quot;,{&amp;quot;style&amp;quot;:null,&amp;quot;start&amp;quot;:null,&amp;quot;backgroundColor&amp;quot;:null,&amp;quot;color&amp;quot;:null,&amp;quot;lineHeight&amp;quot;:null,&amp;quot;listStyleType&amp;quot;:null},&amp;quot;li&amp;quot;,{&amp;quot;style&amp;quot;:null,&amp;quot;checked&amp;quot;:null,&amp;quot;value&amp;quot;:null,&amp;quot;displayValue&amp;quot;:9,&amp;quot;backgroundColor&amp;quot;:null,&amp;quot;color&amp;quot;:null,&amp;quot;listStyleType&amp;quot;:null,&amp;quot;isCollapsed&amp;quot;:null,&amp;quot;draggable&amp;quot;:false,&amp;quot;firstLetterMarks&amp;quot;:[],&amp;quot;listNestingLevel&amp;quot;:1,&amp;quot;firstLetterTextKind&amp;quot;:&amp;quot;p&amp;quot;}]&quot; draggable=&quot;false&quot;&gt;&lt;font style=&quot;font-size: 13px;&quot;&gt;&lt;font style=&quot;&quot;&gt;&lt;b style=&quot;&quot;&gt;8. Respond, Revise, and Reframe (Post-Review&lt;/b&gt;&lt;/font&gt;&lt;b style=&quot;background-color: transparent;&quot;&gt;)&lt;/b&gt;&lt;/font&gt;&lt;/div&gt;&lt;div data-en-clipboard=&quot;true&quot; data-pm-slice=&quot;1 1 [&amp;quot;ol&amp;quot;,{&amp;quot;style&amp;quot;:null,&amp;quot;start&amp;quot;:null,&amp;quot;backgroundColor&amp;quot;:null,&amp;quot;color&amp;quot;:null,&amp;quot;lineHeight&amp;quot;:null,&amp;quot;listStyleType&amp;quot;:null},&amp;quot;li&amp;quot;,{&amp;quot;style&amp;quot;:null,&amp;quot;checked&amp;quot;:null,&amp;quot;value&amp;quot;:null,&amp;quot;displayValue&amp;quot;:9,&amp;quot;backgroundColor&amp;quot;:null,&amp;quot;color&amp;quot;:null,&amp;quot;listStyleType&amp;quot;:null,&amp;quot;isCollapsed&amp;quot;:null,&amp;quot;draggable&amp;quot;:false,&amp;quot;firstLetterMarks&amp;quot;:[],&amp;quot;listNestingLevel&amp;quot;:1,&amp;quot;firstLetterTextKind&amp;quot;:&amp;quot;p&amp;quot;}]&quot; draggable=&quot;false&quot;&gt;&lt;b style=&quot;background-color: transparent;&quot;&gt;&lt;font style=&quot;font-size: 13px;&quot;&gt;Engage with peer review, revise strategically, and update framing&lt;/font&gt;&lt;/b&gt;&lt;/div&gt;&lt;/div&gt;&lt;/div&gt;&lt;/div&gt;&lt;/div&gt;&lt;/div&gt;&lt;/div&gt;" style="rounded=1;whiteSpace=wrap;html=1;fillColor=default;strokeColor=none;fontColor=#000000;shadow=1;" parent="1" vertex="1">
          <mxGeometry x="734" y="1041" width="320" height="76" as="geometry" />
        </mxCell>
        <mxCell id="3B2o3bUjgvVKRlB_GJGi-68" style="edgeStyle=orthogonalEdgeStyle;rounded=1;orthogonalLoop=1;jettySize=auto;html=1;entryX=0;entryY=0.5;entryDx=0;entryDy=0;shape=flexArrow;shadow=1;endSize=4;startSize=2;strokeWidth=1;opacity=60;strokeColor=#99CCFF;fillColor=#99CCFF;gradientColor=default;gradientDirection=east;flowAnimation=1;" parent="1" source="3B2o3bUjgvVKRlB_GJGi-67" target="3B2o3bUjgvVKRlB_GJGi-1" edge="1">
          <mxGeometry relative="1" as="geometry" />
        </mxCell>
        <mxCell id="3B2o3bUjgvVKRlB_GJGi-67" value="&lt;blockquote style=&quot;margin: 0 0 0 40px; border: none; padding: 0px;&quot;&gt;&lt;div style=&quot;text-align: left;&quot; draggable=&quot;false&quot;&gt;&lt;font style=&quot;font-size: 11px;&quot;&gt;&lt;span style=&quot;color: rgb(26, 32, 44); font-family: &amp;quot;Segoe UI&amp;quot;, Tahoma, Geneva, Verdana, sans-serif; font-size: 13.6px; font-weight: 700; background-color: rgb(255, 255, 255);&quot;&gt;Step 1: Formulate Historical Question&lt;/span&gt;&lt;/font&gt;&lt;/div&gt;&lt;div style=&quot;text-align: left;&quot; draggable=&quot;false&quot;&gt;&lt;font style=&quot;font-size: 11px;&quot;&gt;🔵&lt;font style=&quot;color: rgb(0, 127, 255);&quot;&gt; &lt;font style=&quot;color: rgb(0, 76, 153);&quot;&gt;Discover: Spot gaps in the literature, citation blind spots&lt;/font&gt;&lt;/font&gt;&lt;/font&gt;&lt;/div&gt;&lt;div style=&quot;text-align: left;&quot; draggable=&quot;false&quot;&gt;&lt;font style=&quot;font-size: 11px;&quot;&gt;🔴 &lt;font style=&quot;color: rgb(255, 51, 51);&quot;&gt;Translate: Generate questions from non-English sources or multilingual corpora&lt;/font&gt;&lt;/font&gt;&lt;/div&gt;&lt;div style=&quot;text-align: left;&quot; draggable=&quot;false&quot;&gt;&lt;font style=&quot;font-size: 11px;&quot;&gt;🟠 &lt;font style=&quot;color: rgb(255, 128, 0);&quot;&gt;Analyze: Detect emerging patterns or actor clusters from scanned source images&lt;/font&gt;&lt;/font&gt;&lt;/div&gt;&lt;/blockquote&gt;" style="rounded=1;whiteSpace=wrap;html=1;strokeWidth=1;" parent="1" vertex="1">
          <mxGeometry x="-190" y="46" width="409" height="110" as="geometry" />
        </mxCell>
        <mxCell id="3B2o3bUjgvVKRlB_GJGi-70" style="edgeStyle=orthogonalEdgeStyle;rounded=1;orthogonalLoop=1;jettySize=auto;html=1;entryX=0;entryY=0.5;entryDx=0;entryDy=0;shape=flexArrow;shadow=1;endSize=4;startSize=2;strokeWidth=1;opacity=60;strokeColor=#99CCFF;fillColor=#99CCFF;gradientColor=default;gradientDirection=east;flowAnimation=1;" parent="1" source="3B2o3bUjgvVKRlB_GJGi-69" target="3B2o3bUjgvVKRlB_GJGi-2" edge="1">
          <mxGeometry relative="1" as="geometry" />
        </mxCell>
        <mxCell id="3B2o3bUjgvVKRlB_GJGi-69" value="&lt;blockquote style=&quot;margin: 0 0 0 40px; border: none; padding: 0px;&quot;&gt;&lt;div style=&quot;&quot; draggable=&quot;false&quot;&gt;&lt;div draggable=&quot;false&quot;&gt;&lt;font style=&quot;font-size: 11px;&quot;&gt;&lt;span style=&quot;color: rgb(26, 32, 44); font-family: &amp;quot;Segoe UI&amp;quot;, Tahoma, Geneva, Verdana, sans-serif; font-size: 13.6px; font-weight: 700; background-color: rgb(255, 255, 255);&quot;&gt;Step 2: Survey Literature &amp;amp; Historiography&lt;/span&gt;&lt;/font&gt;&lt;/div&gt;&lt;/div&gt;&lt;div style=&quot;&quot; draggable=&quot;false&quot;&gt;&lt;div draggable=&quot;false&quot;&gt;&lt;font style=&quot;font-size: 11px;&quot;&gt;🔴&lt;font style=&quot;color: rgb(255, 51, 51);&quot;&gt; Translate: Summarize and compare scholarship across languages&lt;/font&gt;&lt;/font&gt;&lt;/div&gt;&lt;/div&gt;&lt;div style=&quot;&quot; draggable=&quot;false&quot;&gt;&lt;div draggable=&quot;false&quot;&gt;&lt;font style=&quot;font-size: 11px;&quot;&gt;🟠 &lt;font style=&quot;color: rgb(255, 128, 0);&quot;&gt;Analyze: Cluster thematic fields, identify trends and schools of thought&lt;/font&gt;&lt;/font&gt;&lt;/div&gt;&lt;/div&gt;&lt;div style=&quot;&quot; draggable=&quot;false&quot;&gt;&lt;div draggable=&quot;false&quot;&gt;&lt;font style=&quot;font-size: 11px;&quot;&gt;🔵 &lt;font style=&quot;color: rgb(0, 127, 255);&quot;&gt;Discover: Highlight neglected areas using citation tools&lt;/font&gt;&lt;/font&gt;&lt;/div&gt;&lt;/div&gt;&lt;div style=&quot;&quot; draggable=&quot;false&quot;&gt;&lt;div draggable=&quot;false&quot;&gt;&lt;font style=&quot;font-size: 11px;&quot;&gt;🟣 &lt;font style=&quot;color: rgb(204, 0, 204);&quot;&gt;Visualize: Citation networks, field maps&lt;/font&gt;&lt;/font&gt;&lt;/div&gt;&lt;/div&gt;&lt;/blockquote&gt;" style="rounded=1;whiteSpace=wrap;html=1;align=left;" parent="1" vertex="1">
          <mxGeometry x="-189" y="196" width="409" height="91" as="geometry" />
        </mxCell>
        <mxCell id="3B2o3bUjgvVKRlB_GJGi-74" style="edgeStyle=orthogonalEdgeStyle;rounded=1;orthogonalLoop=1;jettySize=auto;html=1;entryX=0;entryY=0.5;entryDx=0;entryDy=0;shape=flexArrow;shadow=1;endSize=4;startSize=2;strokeWidth=1;opacity=60;strokeColor=#99CCFF;fillColor=#99CCFF;gradientColor=default;gradientDirection=east;flowAnimation=1;" parent="1" source="3B2o3bUjgvVKRlB_GJGi-73" target="3B2o3bUjgvVKRlB_GJGi-22" edge="1">
          <mxGeometry relative="1" as="geometry" />
        </mxCell>
        <mxCell id="3B2o3bUjgvVKRlB_GJGi-73" value="&lt;blockquote style=&quot;margin: 0 0 0 40px; border: none; padding: 0px;&quot;&gt;&lt;div style=&quot;&quot; draggable=&quot;false&quot;&gt;&lt;div draggable=&quot;false&quot;&gt;&lt;div draggable=&quot;false&quot;&gt;&lt;div draggable=&quot;false&quot;&gt;&lt;font style=&quot;font-size: 11px;&quot;&gt;&lt;span style=&quot;color: rgb(26, 32, 44); font-family: &amp;quot;Segoe UI&amp;quot;, Tahoma, Geneva, Verdana, sans-serif; font-size: 13.6px; font-weight: 700; background-color: rgb(255, 255, 255);&quot;&gt;Step 4: Locate &amp;amp; Collect Primary Sources&lt;/span&gt;&lt;/font&gt;&lt;/div&gt;&lt;/div&gt;&lt;/div&gt;&lt;/div&gt;&lt;div style=&quot;&quot; draggable=&quot;false&quot;&gt;&lt;div draggable=&quot;false&quot;&gt;&lt;div draggable=&quot;false&quot;&gt;&lt;div draggable=&quot;false&quot;&gt;&lt;font style=&quot;font-size: 11px;&quot;&gt;🔵 &lt;font style=&quot;color: rgb(0, 127, 255);&quot;&gt;Discover: Recommend source types and repositories&lt;/font&gt;&lt;/font&gt;&lt;/div&gt;&lt;/div&gt;&lt;/div&gt;&lt;/div&gt;&lt;div style=&quot;&quot; draggable=&quot;false&quot;&gt;&lt;div draggable=&quot;false&quot;&gt;&lt;div draggable=&quot;false&quot;&gt;&lt;div draggable=&quot;false&quot;&gt;&lt;font style=&quot;font-size: 11px;&quot;&gt;🔴 &lt;font style=&quot;color: rgb(255, 51, 51);&quot;&gt;Translate: Navigate multilingual finding aids&lt;/font&gt;&lt;/font&gt;&lt;/div&gt;&lt;/div&gt;&lt;/div&gt;&lt;/div&gt;&lt;div style=&quot;&quot; draggable=&quot;false&quot;&gt;&lt;div draggable=&quot;false&quot;&gt;&lt;div draggable=&quot;false&quot;&gt;&lt;div draggable=&quot;false&quot;&gt;&lt;font style=&quot;font-size: 11px;&quot;&gt;🟠 &lt;font style=&quot;color: rgb(255, 128, 0);&quot;&gt;Analyze: Extract names, dates, and patterns; conduct semantic search&lt;/font&gt;&lt;/font&gt;&lt;/div&gt;&lt;/div&gt;&lt;/div&gt;&lt;/div&gt;&lt;/blockquote&gt;" style="rounded=1;whiteSpace=wrap;html=1;align=left;" parent="1" vertex="1">
          <mxGeometry x="-189" y="481" width="409" height="80" as="geometry" />
        </mxCell>
        <mxCell id="3B2o3bUjgvVKRlB_GJGi-75" value="&lt;blockquote style=&quot;margin: 0 0 0 40px; border: none; padding: 0px;&quot;&gt;&lt;div style=&quot;text-align: left;&quot; draggable=&quot;false&quot;&gt;&lt;div draggable=&quot;false&quot;&gt;&lt;div draggable=&quot;false&quot;&gt;&lt;div draggable=&quot;false&quot;&gt;&lt;span style=&quot;color: rgb(26, 32, 44); font-family: &amp;quot;Segoe UI&amp;quot;, Tahoma, Geneva, Verdana, sans-serif; font-size: 13.6px; font-weight: 700; background-color: rgb(255, 255, 255);&quot;&gt;Step 5: Analyze Sources and Data&lt;/span&gt;&lt;/div&gt;&lt;/div&gt;&lt;/div&gt;&lt;/div&gt;&lt;div style=&quot;text-align: left;&quot; draggable=&quot;false&quot;&gt;&lt;div draggable=&quot;false&quot;&gt;&lt;div draggable=&quot;false&quot;&gt;&lt;div draggable=&quot;false&quot;&gt;&lt;span style=&quot;color: light-dark(rgb(0, 0, 0), rgb(255, 255, 255)); font-size: 11px; background-color: transparent;&quot;&gt;🔵 &lt;/span&gt;&lt;font style=&quot;color: rgb(0, 127, 255);&quot;&gt;&lt;span style=&quot;font-size: 11px; background-color: transparent;&quot;&gt;Discover:&lt;/span&gt;&lt;span style=&quot;font-size: 11px; background-color: transparent;&quot;&gt;&amp;nbsp;&lt;/span&gt;&lt;/font&gt;&lt;span style=&quot;background-color: transparent;&quot;&gt;&lt;font style=&quot;color: light-dark(rgb(0, 127, 255), rgb(255, 255, 255));&quot;&gt;Extract and synthesize key data—such as names, dates, events, and locations—from historical documents&lt;/font&gt;&lt;/span&gt;&lt;/div&gt;&lt;/div&gt;&lt;/div&gt;&lt;/div&gt;&lt;div style=&quot;text-align: left;&quot; draggable=&quot;false&quot;&gt;&lt;div draggable=&quot;false&quot;&gt;&lt;div draggable=&quot;false&quot;&gt;&lt;div draggable=&quot;false&quot;&gt;&lt;span style=&quot;color: light-dark(rgb(0, 0, 0), rgb(255, 255, 255)); font-size: 11px; background-color: transparent;&quot;&gt;🟠 &lt;/span&gt;&lt;span style=&quot;font-size: 11px; background-color: transparent;&quot;&gt;&lt;font style=&quot;color: light-dark(rgb(255, 128, 0), rgb(255, 255, 255));&quot;&gt;Analyze:&amp;nbsp;&lt;/font&gt;&lt;/span&gt;&lt;span style=&quot;background-color: transparent;&quot;&gt;&lt;font style=&quot;color: light-dark(rgb(255, 128, 0), rgb(255, 255, 255));&quot;&gt;Evaluate authorship, identify genre conventions, assess bias and perspective, and uncover intertextual links across sources&lt;/font&gt;&lt;/span&gt;&lt;span style=&quot;font-size: 11px; background-color: transparent;&quot;&gt;&lt;br&gt;&lt;/span&gt;&lt;/div&gt;&lt;/div&gt;&lt;/div&gt;&lt;/div&gt;&lt;div style=&quot;text-align: left;&quot; draggable=&quot;false&quot;&gt;&lt;div draggable=&quot;false&quot;&gt;&lt;div draggable=&quot;false&quot;&gt;&lt;div draggable=&quot;false&quot;&gt;&lt;span style=&quot;color: light-dark(rgb(0, 0, 0), rgb(255, 255, 255)); font-size: 11px; background-color: transparent;&quot;&gt;🟣 &lt;/span&gt;&lt;span style=&quot;font-size: 11px; background-color: transparent;&quot;&gt;&lt;font style=&quot;color: light-dark(rgb(204, 0, 204), rgb(255, 255, 255));&quot;&gt;Visualize:&amp;nbsp;&lt;/font&gt;&lt;/span&gt;&lt;span style=&quot;background-color: transparent;&quot;&gt;&lt;font style=&quot;color: light-dark(rgb(204, 0, 204), rgb(255, 255, 255));&quot;&gt;map connections between actors, trace institutional networks, or chart evolving thematic clusters across time and space&lt;/font&gt;&lt;/span&gt;&lt;/div&gt;&lt;/div&gt;&lt;/div&gt;&lt;/div&gt;&lt;/blockquote&gt;" style="rounded=1;whiteSpace=wrap;html=1;" parent="1" vertex="1">
          <mxGeometry x="-190" y="590" width="409" height="150" as="geometry" />
        </mxCell>
        <mxCell id="3B2o3bUjgvVKRlB_GJGi-80" style="edgeStyle=orthogonalEdgeStyle;rounded=1;orthogonalLoop=1;jettySize=auto;html=1;entryX=0;entryY=0.5;entryDx=0;entryDy=0;shape=flexArrow;shadow=1;endSize=4;startSize=2;strokeWidth=1;opacity=60;strokeColor=#99CCFF;fillColor=#99CCFF;gradientColor=default;gradientDirection=east;flowAnimation=1;" parent="1" source="3B2o3bUjgvVKRlB_GJGi-79" target="3B2o3bUjgvVKRlB_GJGi-8" edge="1">
          <mxGeometry relative="1" as="geometry" />
        </mxCell>
        <mxCell id="3B2o3bUjgvVKRlB_GJGi-79" value="&lt;blockquote style=&quot;margin: 0 0 0 40px; border: none; padding: 0px;&quot;&gt;&lt;div style=&quot;text-align: left;&quot; draggable=&quot;false&quot;&gt;&lt;div draggable=&quot;false&quot;&gt;&lt;div draggable=&quot;false&quot;&gt;&lt;div draggable=&quot;false&quot;&gt;&lt;div draggable=&quot;false&quot;&gt;&lt;font style=&quot;font-size: 11px;&quot;&gt;&lt;font style=&quot;&quot;&gt;&lt;span style=&quot;color: rgb(26, 32, 44); font-family: &amp;quot;Segoe UI&amp;quot;, Tahoma, Geneva, Verdana, sans-serif; font-size: 13.6px; font-weight: 700; background-color: rgb(255, 255, 255);&quot;&gt;Step 7: Write &amp;amp; Revise&lt;/span&gt;&lt;/font&gt;&lt;/font&gt;&lt;/div&gt;&lt;/div&gt;&lt;/div&gt;&lt;/div&gt;&lt;/div&gt;&lt;div style=&quot;text-align: left;&quot; draggable=&quot;false&quot;&gt;&lt;div draggable=&quot;false&quot;&gt;&lt;div draggable=&quot;false&quot;&gt;&lt;div draggable=&quot;false&quot;&gt;&lt;div draggable=&quot;false&quot;&gt;&lt;font style=&quot;font-size: 11px;&quot;&gt;&lt;font style=&quot;&quot;&gt;🟢 &lt;font style=&quot;color: rgb(0, 204, 0);&quot;&gt;Support Writing:&amp;nbsp;&lt;/font&gt;&lt;/font&gt;&lt;span style=&quot;background-color: transparent;&quot;&gt;&lt;font style=&quot;color: rgb(0, 204, 0);&quot;&gt;Draft sections, check consistency, format references, enhance introductions/conclusions&lt;/font&gt;&lt;/span&gt;&lt;/font&gt;&lt;/div&gt;&lt;/div&gt;&lt;/div&gt;&lt;/div&gt;&lt;/div&gt;&lt;div style=&quot;text-align: left;&quot; draggable=&quot;false&quot;&gt;&lt;div draggable=&quot;false&quot;&gt;&lt;div draggable=&quot;false&quot;&gt;&lt;div draggable=&quot;false&quot;&gt;&lt;div draggable=&quot;false&quot;&gt;&lt;div data-en-clipboard=&quot;true&quot; data-pm-slice=&quot;1 1 [&amp;quot;ol&amp;quot;,{&amp;quot;style&amp;quot;:null,&amp;quot;start&amp;quot;:null,&amp;quot;backgroundColor&amp;quot;:null,&amp;quot;color&amp;quot;:null,&amp;quot;lineHeight&amp;quot;:null,&amp;quot;listStyleType&amp;quot;:null},&amp;quot;li&amp;quot;,{&amp;quot;style&amp;quot;:null,&amp;quot;checked&amp;quot;:null,&amp;quot;value&amp;quot;:null,&amp;quot;displayValue&amp;quot;:7,&amp;quot;backgroundColor&amp;quot;:null,&amp;quot;color&amp;quot;:null,&amp;quot;listStyleType&amp;quot;:null,&amp;quot;isCollapsed&amp;quot;:null,&amp;quot;draggable&amp;quot;:false,&amp;quot;firstLetterMarks&amp;quot;:[],&amp;quot;listNestingLevel&amp;quot;:1,&amp;quot;firstLetterTextKind&amp;quot;:&amp;quot;p&amp;quot;}]&quot; draggable=&quot;false&quot;&gt;&lt;font style=&quot;font-size: 11px;&quot;&gt;🟠 &lt;font style=&quot;color: rgb(255, 128, 0);&quot;&gt;Analyze: Confirm evidence-argument alignment&lt;/font&gt;&lt;/font&gt;&lt;/div&gt;&lt;/div&gt;&lt;/div&gt;&lt;/div&gt;&lt;/div&gt;&lt;/div&gt;&lt;/blockquote&gt;" style="rounded=1;whiteSpace=wrap;html=1;" parent="1" vertex="1">
          <mxGeometry x="-189" y="910" width="409" height="76" as="geometry" />
        </mxCell>
        <mxCell id="ppZeW9_H2Q4Zgy1ZlsiP-14" style="edgeStyle=orthogonalEdgeStyle;rounded=1;orthogonalLoop=1;jettySize=auto;html=1;shape=flexArrow;strokeWidth=1;endSize=4;fillColor=#99CCFF;gradientColor=default;gradientDirection=east;flowAnimation=1;shadow=1;" edge="1" parent="1" source="3B2o3bUjgvVKRlB_GJGi-81">
          <mxGeometry relative="1" as="geometry">
            <mxPoint x="409.99999999999955" y="815" as="targetPoint" />
          </mxGeometry>
        </mxCell>
        <mxCell id="3B2o3bUjgvVKRlB_GJGi-81" value="&lt;blockquote style=&quot;margin: 0 0 0 40px; border: none; padding: 0px;&quot;&gt;&lt;div style=&quot;&quot; draggable=&quot;false&quot;&gt;&lt;div draggable=&quot;false&quot;&gt;&lt;div draggable=&quot;false&quot;&gt;&lt;div draggable=&quot;false&quot;&gt;&lt;div style=&quot;&quot; draggable=&quot;false&quot;&gt;&lt;font style=&quot;font-size: 11px;&quot;&gt;&lt;span style=&quot;color: rgb(26, 32, 44); font-family: &amp;quot;Segoe UI&amp;quot;, Tahoma, Geneva, Verdana, sans-serif; font-size: 13.6px; font-weight: 700; background-color: rgb(255, 255, 255);&quot;&gt;Step 6: Build Interpretive Argument&lt;/span&gt;&lt;/font&gt;&lt;/div&gt;&lt;/div&gt;&lt;/div&gt;&lt;/div&gt;&lt;/div&gt;&lt;div style=&quot;&quot; draggable=&quot;false&quot;&gt;&lt;div draggable=&quot;false&quot;&gt;&lt;div draggable=&quot;false&quot;&gt;&lt;div draggable=&quot;false&quot;&gt;&lt;div style=&quot;&quot; draggable=&quot;false&quot;&gt;&lt;font style=&quot;font-size: 11px;&quot;&gt;🟢 &lt;font style=&quot;color: rgb(0, 153, 0);&quot;&gt;&lt;font style=&quot;color: rgb(0, 204, 0);&quot;&gt;Support Writing:&amp;nbsp;&lt;/font&gt;&lt;/font&gt;&lt;/font&gt;&lt;span style=&quot;background-color: transparent;&quot;&gt;&lt;font style=&quot;color: light-dark(rgb(0, 204, 0), rgb(255, 255, 255));&quot;&gt;Craft a central thesis, organize supporting claims, and integrate primary sources as evidence&lt;/font&gt;&lt;/span&gt;&lt;/div&gt;&lt;/div&gt;&lt;/div&gt;&lt;/div&gt;&lt;/div&gt;&lt;div style=&quot;&quot; draggable=&quot;false&quot;&gt;&lt;div draggable=&quot;false&quot;&gt;&lt;div draggable=&quot;false&quot;&gt;&lt;div draggable=&quot;false&quot;&gt;&lt;div style=&quot;&quot; draggable=&quot;false&quot;&gt;&lt;font style=&quot;font-size: 11px;&quot;&gt;🔵 &lt;font style=&quot;color: rgb(0, 127, 255);&quot;&gt;Discover:&amp;nbsp;&lt;span style=&quot;background-color: transparent;&quot;&gt;Situate the argument within historiographical debates and identify relevant scholarly conversation&lt;/span&gt;&lt;br&gt;&lt;/font&gt;&lt;/font&gt;&lt;/div&gt;&lt;/div&gt;&lt;/div&gt;&lt;/div&gt;&lt;/div&gt;&lt;div style=&quot;&quot; draggable=&quot;false&quot;&gt;&lt;div draggable=&quot;false&quot;&gt;&lt;div draggable=&quot;false&quot;&gt;&lt;div draggable=&quot;false&quot;&gt;&lt;div style=&quot;&quot; draggable=&quot;false&quot;&gt;&lt;font style=&quot;font-size: 11px;&quot;&gt;🟣&lt;font style=&quot;color: rgb(204, 0, 204);&quot;&gt; Visualize:&amp;nbsp;&lt;/font&gt;&lt;/font&gt;&lt;span style=&quot;background-color: transparent;&quot;&gt;&lt;font style=&quot;color: light-dark(rgb(204, 0, 204), rgb(255, 255, 255));&quot;&gt;Reinforce arguments with timelines, network maps, or thematic charts that clarify patterns and relationships&lt;/font&gt;&lt;/span&gt;&lt;/div&gt;&lt;/div&gt;&lt;/div&gt;&lt;/div&gt;&lt;/div&gt;&lt;/blockquote&gt;" style="rounded=1;whiteSpace=wrap;html=1;align=left;" parent="1" vertex="1">
          <mxGeometry x="-189" y="755" width="409" height="120" as="geometry" />
        </mxCell>
        <mxCell id="3B2o3bUjgvVKRlB_GJGi-84" style="edgeStyle=orthogonalEdgeStyle;rounded=1;orthogonalLoop=1;jettySize=auto;html=1;entryX=0;entryY=0.5;entryDx=0;entryDy=0;shape=flexArrow;shadow=1;endSize=4;startSize=2;strokeWidth=1;opacity=60;strokeColor=#99CCFF;fillColor=#99CCFF;gradientColor=default;gradientDirection=east;flowAnimation=1;" parent="1" source="3B2o3bUjgvVKRlB_GJGi-83" target="3B2o3bUjgvVKRlB_GJGi-3" edge="1">
          <mxGeometry relative="1" as="geometry" />
        </mxCell>
        <mxCell id="3B2o3bUjgvVKRlB_GJGi-83" value="&lt;blockquote style=&quot;margin: 0 0 0 40px; border: none; padding: 0px;&quot;&gt;&lt;div style=&quot;&quot; draggable=&quot;false&quot;&gt;&lt;div draggable=&quot;false&quot;&gt;&lt;div draggable=&quot;false&quot;&gt;&lt;div draggable=&quot;false&quot;&gt;&lt;div draggable=&quot;false&quot;&gt;&lt;font style=&quot;font-size: 11px;&quot;&gt;&lt;span style=&quot;color: rgb(26, 32, 44); font-family: &amp;quot;Segoe UI&amp;quot;, Tahoma, Geneva, Verdana, sans-serif; font-size: 13.6px; font-weight: 700; background-color: rgb(255, 255, 255);&quot;&gt;Step 3: Define Scope &amp;amp; Methodology&lt;/span&gt;&lt;/font&gt;&lt;/div&gt;&lt;/div&gt;&lt;/div&gt;&lt;/div&gt;&lt;/div&gt;&lt;div style=&quot;&quot; draggable=&quot;false&quot;&gt;&lt;div draggable=&quot;false&quot;&gt;&lt;div draggable=&quot;false&quot;&gt;&lt;div draggable=&quot;false&quot;&gt;&lt;div draggable=&quot;false&quot;&gt;&lt;font style=&quot;font-size: 11px;&quot;&gt;🔴 &lt;font style=&quot;color: rgb(255, 51, 51);&quot;&gt;Translate: Clarify cross-linguistic conceptual frameworks&lt;/font&gt;&lt;/font&gt;&lt;/div&gt;&lt;/div&gt;&lt;/div&gt;&lt;/div&gt;&lt;/div&gt;&lt;div style=&quot;&quot; draggable=&quot;false&quot;&gt;&lt;div draggable=&quot;false&quot;&gt;&lt;div draggable=&quot;false&quot;&gt;&lt;div draggable=&quot;false&quot;&gt;&lt;div draggable=&quot;false&quot;&gt;&lt;font style=&quot;font-size: 11px;&quot;&gt;🟠 &lt;font style=&quot;color: rgb(255, 128, 0);&quot;&gt;Analyze: Recommend methods based on project goals&lt;/font&gt;&lt;/font&gt;&lt;/div&gt;&lt;/div&gt;&lt;/div&gt;&lt;/div&gt;&lt;/div&gt;&lt;div style=&quot;&quot; draggable=&quot;false&quot;&gt;&lt;div draggable=&quot;false&quot;&gt;&lt;div draggable=&quot;false&quot;&gt;&lt;div draggable=&quot;false&quot;&gt;&lt;div draggable=&quot;false&quot;&gt;&lt;font style=&quot;font-size: 11px;&quot;&gt;🟣 &lt;font style=&quot;color: rgb(204, 0, 204);&quot;&gt;Visualize: Create timelines and geographic scope illustrations&lt;/font&gt;&lt;/font&gt;&lt;/div&gt;&lt;/div&gt;&lt;/div&gt;&lt;/div&gt;&lt;/div&gt;&lt;div style=&quot;&quot; draggable=&quot;false&quot;&gt;&lt;div draggable=&quot;false&quot;&gt;&lt;div draggable=&quot;false&quot;&gt;&lt;div draggable=&quot;false&quot;&gt;&lt;div draggable=&quot;false&quot;&gt;&lt;font style=&quot;font-size: 11px;&quot;&gt;🔵 &lt;font style=&quot;color: rgb(0, 127, 255);&quot;&gt;Discover: Compare framing strategies across analogous studies&lt;/font&gt;&lt;/font&gt;&lt;/div&gt;&lt;/div&gt;&lt;/div&gt;&lt;/div&gt;&lt;/div&gt;&lt;/blockquote&gt;" style="rounded=1;whiteSpace=wrap;html=1;align=left;" parent="1" vertex="1">
          <mxGeometry x="-190" y="335" width="409" height="92" as="geometry" />
        </mxCell>
        <mxCell id="3B2o3bUjgvVKRlB_GJGi-86" style="edgeStyle=orthogonalEdgeStyle;rounded=1;orthogonalLoop=1;jettySize=auto;html=1;entryX=0;entryY=0.5;entryDx=0;entryDy=0;shape=flexArrow;shadow=1;endSize=4;startSize=2;strokeWidth=1;opacity=60;strokeColor=#99CCFF;fillColor=#99CCFF;gradientColor=default;gradientDirection=east;flowAnimation=1;" parent="1" source="3B2o3bUjgvVKRlB_GJGi-85" edge="1">
          <mxGeometry relative="1" as="geometry">
            <mxPoint x="410" y="1227" as="targetPoint" />
          </mxGeometry>
        </mxCell>
        <mxCell id="3B2o3bUjgvVKRlB_GJGi-85" value="&lt;blockquote style=&quot;margin: 0 0 0 40px; border: none; padding: 0px;&quot;&gt;&lt;div style=&quot;&quot; draggable=&quot;false&quot;&gt;&lt;div draggable=&quot;false&quot;&gt;&lt;div draggable=&quot;false&quot;&gt;&lt;div draggable=&quot;false&quot;&gt;&lt;div draggable=&quot;false&quot;&gt;&lt;div draggable=&quot;false&quot;&gt;&lt;font style=&quot;font-size: 11px;&quot;&gt;&lt;span style=&quot;color: rgb(26, 32, 44); font-family: &amp;quot;Segoe UI&amp;quot;, Tahoma, Geneva, Verdana, sans-serif; font-size: 13.6px; font-weight: 700; background-color: rgb(255, 255, 255);&quot;&gt;Step 9: Disseminate &amp;amp; Engage&lt;/span&gt;&lt;/font&gt;&lt;/div&gt;&lt;/div&gt;&lt;/div&gt;&lt;/div&gt;&lt;/div&gt;&lt;/div&gt;&lt;div style=&quot;&quot; draggable=&quot;false&quot;&gt;&lt;div draggable=&quot;false&quot;&gt;&lt;div draggable=&quot;false&quot;&gt;&lt;div draggable=&quot;false&quot;&gt;&lt;div draggable=&quot;false&quot;&gt;&lt;div draggable=&quot;false&quot;&gt;&lt;font style=&quot;font-size: 11px;&quot;&gt;🟢 &lt;font style=&quot;color: rgb(0, 204, 0);&quot;&gt;Support Writing: Generate abstracts, submissions, and social posts&lt;/font&gt;&lt;/font&gt;&lt;/div&gt;&lt;/div&gt;&lt;/div&gt;&lt;/div&gt;&lt;/div&gt;&lt;/div&gt;&lt;div style=&quot;&quot; draggable=&quot;false&quot;&gt;&lt;div draggable=&quot;false&quot;&gt;&lt;div draggable=&quot;false&quot;&gt;&lt;div draggable=&quot;false&quot;&gt;&lt;div draggable=&quot;false&quot;&gt;&lt;div draggable=&quot;false&quot;&gt;&lt;font style=&quot;font-size: 11px;&quot;&gt;🔴 &lt;font style=&quot;color: rgb(255, 51, 51);&quot;&gt;Translate: Produce summaries for broader audiences&lt;/font&gt;&lt;/font&gt;&lt;/div&gt;&lt;/div&gt;&lt;/div&gt;&lt;/div&gt;&lt;/div&gt;&lt;/div&gt;&lt;div style=&quot;&quot; draggable=&quot;false&quot;&gt;&lt;div draggable=&quot;false&quot;&gt;&lt;div draggable=&quot;false&quot;&gt;&lt;div draggable=&quot;false&quot;&gt;&lt;div draggable=&quot;false&quot;&gt;&lt;div draggable=&quot;false&quot;&gt;&lt;font style=&quot;font-size: 11px;&quot;&gt;🟣 &lt;font style=&quot;color: rgb(204, 0, 204);&quot;&gt;Visualize: Prepare public-facing timelines, graphs, or data exhibits&lt;/font&gt;&lt;/font&gt;&lt;/div&gt;&lt;/div&gt;&lt;/div&gt;&lt;/div&gt;&lt;/div&gt;&lt;/div&gt;&lt;/blockquote&gt;" style="rounded=1;whiteSpace=wrap;html=1;align=left;" parent="1" vertex="1">
          <mxGeometry x="-189" y="1189" width="409" height="76" as="geometry" />
        </mxCell>
        <mxCell id="ppZeW9_H2Q4Zgy1ZlsiP-10" style="edgeStyle=orthogonalEdgeStyle;rounded=1;orthogonalLoop=1;jettySize=auto;html=1;exitX=1;exitY=0.5;exitDx=0;exitDy=0;entryX=0;entryY=0.5;entryDx=0;entryDy=0;shape=flexArrow;endSize=4;strokeColor=#99CCFF;fillColor=#99CCFF;gradientColor=default;gradientDirection=east;flowAnimation=1;shadow=1;" edge="1" parent="1" source="3B2o3bUjgvVKRlB_GJGi-87" target="3B2o3bUjgvVKRlB_GJGi-26">
          <mxGeometry relative="1" as="geometry">
            <mxPoint x="390" y="1080" as="targetPoint" />
          </mxGeometry>
        </mxCell>
        <mxCell id="3B2o3bUjgvVKRlB_GJGi-87" value="&lt;blockquote style=&quot;margin: 0 0 0 40px; border: none; padding: 0px;&quot;&gt;&lt;div style=&quot;text-align: left;&quot; draggable=&quot;false&quot;&gt;&lt;div draggable=&quot;false&quot;&gt;&lt;div draggable=&quot;false&quot;&gt;&lt;div draggable=&quot;false&quot;&gt;&lt;div draggable=&quot;false&quot;&gt;&lt;div draggable=&quot;false&quot;&gt;&lt;div draggable=&quot;false&quot;&gt;&lt;font style=&quot;font-size: 11px;&quot;&gt;&lt;span style=&quot;color: rgb(26, 32, 44); font-family: &amp;quot;Segoe UI&amp;quot;, Tahoma, Geneva, Verdana, sans-serif; font-size: 13.6px; font-weight: 700; background-color: rgb(255, 255, 255);&quot;&gt;Step 8: Respond, Revise &amp;amp; Reframe&lt;/span&gt;&lt;/font&gt;&lt;/div&gt;&lt;/div&gt;&lt;/div&gt;&lt;/div&gt;&lt;/div&gt;&lt;/div&gt;&lt;/div&gt;&lt;div style=&quot;text-align: left;&quot; draggable=&quot;false&quot;&gt;&lt;div draggable=&quot;false&quot;&gt;&lt;div draggable=&quot;false&quot;&gt;&lt;div draggable=&quot;false&quot;&gt;&lt;div draggable=&quot;false&quot;&gt;&lt;div draggable=&quot;false&quot;&gt;&lt;div draggable=&quot;false&quot;&gt;&lt;font style=&quot;font-size: 11px;&quot;&gt;🟠 &lt;font style=&quot;color: rgb(255, 128, 0);&quot;&gt;Analyze: Organize critiques and plan revisions&lt;/font&gt;&lt;/font&gt;&lt;/div&gt;&lt;/div&gt;&lt;/div&gt;&lt;/div&gt;&lt;/div&gt;&lt;/div&gt;&lt;/div&gt;&lt;div style=&quot;text-align: left;&quot; draggable=&quot;false&quot;&gt;&lt;div draggable=&quot;false&quot;&gt;&lt;div draggable=&quot;false&quot;&gt;&lt;div draggable=&quot;false&quot;&gt;&lt;div draggable=&quot;false&quot;&gt;&lt;div draggable=&quot;false&quot;&gt;&lt;div draggable=&quot;false&quot;&gt;&lt;font style=&quot;font-size: 11px;&quot;&gt;🔵 &lt;font style=&quot;color: rgb(0, 127, 255);&quot;&gt;Discover: Prioritize changes; reassess scope&lt;/font&gt;&lt;/font&gt;&lt;/div&gt;&lt;/div&gt;&lt;/div&gt;&lt;/div&gt;&lt;/div&gt;&lt;/div&gt;&lt;/div&gt;&lt;div style=&quot;text-align: left;&quot; draggable=&quot;false&quot;&gt;&lt;div draggable=&quot;false&quot;&gt;&lt;div draggable=&quot;false&quot;&gt;&lt;div draggable=&quot;false&quot;&gt;&lt;div draggable=&quot;false&quot;&gt;&lt;div draggable=&quot;false&quot;&gt;&lt;div draggable=&quot;false&quot;&gt;&lt;font style=&quot;font-size: 11px;&quot;&gt;🟢 &lt;font style=&quot;color: rgb(0, 204, 0);&quot;&gt;Support Writing: Track changes, write response letters, and refine framing&lt;/font&gt;&lt;/font&gt;&lt;/div&gt;&lt;/div&gt;&lt;/div&gt;&lt;/div&gt;&lt;/div&gt;&lt;/div&gt;&lt;/div&gt;&lt;/blockquote&gt;" style="rounded=1;whiteSpace=wrap;html=1;" parent="1" vertex="1">
          <mxGeometry x="-189" y="1036" width="409" height="100" as="geometry" />
        </mxCell>
        <mxCell id="3B2o3bUjgvVKRlB_GJGi-98" value="&lt;h3 style=&quot;color: rgb(45, 55, 72); margin-bottom: 15px; font-size: 1.2em; font-family: &amp;quot;Segoe UI&amp;quot;, Tahoma, Geneva, Verdana, sans-serif; text-align: start;&quot;&gt;Process Flow Legend&lt;/h3&gt;" style="shape=process;whiteSpace=wrap;html=1;backgroundOutline=1;" parent="1" vertex="1">
          <mxGeometry x="-129.5" y="1326" width="279" height="22" as="geometry" />
        </mxCell>
        <mxCell id="3B2o3bUjgvVKRlB_GJGi-99" value="&lt;div style=&quot;line-height: 170%;&quot;&gt;&lt;div style=&quot;text-align: left;&quot;&gt;&lt;span&gt;&lt;span style=&quot;text-wrap-mode: nowrap; color: rgba(0, 0, 0, 0); font-family: monospace; font-size: 0px; line-height: 170%;&quot;&gt;%3CmxGraphModel%3E%3Croot%3E%3CmxCell%20id%3D%220%22%2F%3E%3CmxCell%20id%3D%221%22%20parent%3D%220%22%2F%3E%3CmxCell%20id%3D%222%22%20value%3D%22%26lt%3Bdiv%26gt%3B%26lt%3Bspan%20style%3D%26quot%3Bcolor%3A%20rgb(45%2C%2055%2C%2072)%3B%20font-family%3A%20%26amp%3Bquot%3BSegoe%20UI%26amp%3Bquot%3B%2C%20Tahoma%2C%20Geneva%2C%20Verdana%2C%20sans-serif%3B%20font-size%3A%20108px%3B%20font-weight%3A%20600%3B%26quot%3B%26gt%3B%26lt%3Bspan%20style%3D%26quot%3Bfont-size%3A%20288px%3B%26quot%3B%26gt%3B%F0%9F%94%84%26lt%3B%2Fspan%26gt%3B%26lt%3B%2Fspan%26gt%3B%26lt%3B%2Fdiv%26gt%3B%26lt%3Bspan%20style%3D%26quot%3Bcolor%3A%20rgb(45%2C%2055%2C%2072)%3B%20font-family%3A%20%26amp%3Bquot%3BSegoe%20UI%26amp%3Bquot%3B%2C%20Tahoma%2C%20Geneva%2C%20Verdana%2C%20sans-serif%3B%20font-size%3A%20108px%3B%20font-weight%3A%20600%3B%26quot%3B%26gt%3BIterate%20the%20Process%26lt%3B%2Fspan%26gt%3B%22%20style%3D%22ellipse%3BwhiteSpace%3Dwrap%3Bhtml%3D1%3Baspect%3Dfixed%3BfillColor%3Dlight-dark(%2391FAB5%2C%23008312)%3BstrokeWidth%3D0%3B%22%20vertex%3D%221%22%20parent%3D%221%22%3E%3CmxGeometry%20x%3D%22260%22%20y%3D%22461%22%20width%3D%22120%22%20height%3D%22120%22%20as%3D%22geometry%22%2F%3E%3C%2FmxCell%3E%3C%2Froot%3E%3C%2FmxGraphModel%3E&lt;/span&gt;&lt;span style=&quot;color: rgb(74, 85, 104); font-family: &amp;quot;Segoe UI&amp;quot;, Tahoma, Geneva, Verdana, sans-serif; font-size: 14.4px; text-align: start; line-height: 170%;&quot;&gt;Standard Research Steps&lt;/span&gt;&lt;/span&gt;&lt;/div&gt;&lt;div style=&quot;text-align: left;&quot;&gt;&lt;span&gt;&lt;span style=&quot;color: rgb(74, 85, 104); font-family: &amp;quot;Segoe UI&amp;quot;, Tahoma, Geneva, Verdana, sans-serif; font-size: 14.4px; line-height: 170%;&quot;&gt;Revision &amp;amp; Iteration Point&lt;/span&gt;&lt;span&gt;&lt;span style=&quot;color: rgb(74, 85, 104); font-family: &amp;quot;Segoe UI&amp;quot;, Tahoma, Geneva, Verdana, sans-serif; font-size: 14.4px; text-align: start; background-color: rgb(247, 250, 252);&quot;&gt;&lt;/span&gt;&lt;/span&gt;&lt;/span&gt;&lt;/div&gt;&lt;div style=&quot;text-align: left;&quot;&gt;&lt;span&gt;&lt;span style=&quot;color: rgb(74, 85, 104); font-family: &amp;quot;Segoe UI&amp;quot;, Tahoma, Geneva, Verdana, sans-serif; font-size: 14.4px; line-height: 170%;&quot;&gt;Sequential Flow&lt;/span&gt;&lt;span style=&quot;color: rgb(74, 85, 104); font-family: &amp;quot;Segoe UI&amp;quot;, Tahoma, Geneva, Verdana, sans-serif; font-size: 14.4px;&quot;&gt;&lt;/span&gt;&lt;/span&gt;&lt;/div&gt;&lt;div style=&quot;text-align: left;&quot;&gt;&lt;span style=&quot;color: rgb(74, 85, 104); font-family: &amp;quot;Segoe UI&amp;quot;, Tahoma, Geneva, Verdana, sans-serif; font-size: 14.4px; line-height: 170%;&quot;&gt;Feedback &amp;amp; Iteration Loop&lt;/span&gt;&lt;/div&gt;&lt;/div&gt;" style="rounded=0;whiteSpace=wrap;html=1;" parent="1" vertex="1">
          <mxGeometry x="-129.5" y="1348" width="279.5" height="130" as="geometry" />
        </mxCell>
        <mxCell id="3B2o3bUjgvVKRlB_GJGi-101" value="" style="ellipse;whiteSpace=wrap;html=1;aspect=fixed;fillColor=light-dark(#91FAB5,#008312);strokeWidth=0;" parent="1" vertex="1">
          <mxGeometry x="-118" y="1368" width="20" height="20" as="geometry" />
        </mxCell>
        <mxCell id="3B2o3bUjgvVKRlB_GJGi-103" value="" style="ellipse;whiteSpace=wrap;html=1;aspect=fixed;fillColor=light-dark(#FF9933,#008312);strokeWidth=0;" parent="1" vertex="1">
          <mxGeometry x="-118" y="1392" width="20" height="20" as="geometry" />
        </mxCell>
        <mxCell id="3B2o3bUjgvVKRlB_GJGi-104" value="" style="edgeStyle=elbowEdgeStyle;elbow=horizontal;endArrow=classic;html=1;curved=0;rounded=0;endSize=8;startSize=8;dashed=1;strokeWidth=3;strokeColor=#FF0000;" parent="1" edge="1">
          <mxGeometry width="50" height="50" relative="1" as="geometry">
            <mxPoint x="-125" y="1452" as="sourcePoint" />
            <mxPoint x="-85" y="1452" as="targetPoint" />
            <Array as="points">
              <mxPoint x="-115" y="1452" />
            </Array>
          </mxGeometry>
        </mxCell>
        <mxCell id="3B2o3bUjgvVKRlB_GJGi-105" value="" style="edgeStyle=elbowEdgeStyle;elbow=horizontal;endArrow=classic;html=1;curved=0;rounded=0;endSize=8;startSize=8;strokeWidth=3;strokeColor=#000000;" parent="1" edge="1">
          <mxGeometry width="50" height="50" relative="1" as="geometry">
            <mxPoint x="-124" y="1428" as="sourcePoint" />
            <mxPoint x="-84" y="1428" as="targetPoint" />
            <Array as="points">
              <mxPoint x="-114" y="1428" />
            </Array>
          </mxGeometry>
        </mxCell>
        <mxCell id="3B2o3bUjgvVKRlB_GJGi-116" value="&lt;b&gt;&lt;font style=&quot;font-size: 29px;&quot;&gt;The AI-Augmented Historical Research Process&lt;/font&gt;&lt;/b&gt;" style="rounded=1;whiteSpace=wrap;html=1;" parent="1" vertex="1">
          <mxGeometry x="222" y="-99" width="520" height="99" as="geometry" />
        </mxCell>
        <mxCell id="ppZeW9_H2Q4Zgy1ZlsiP-2" value="&lt;h3 style=&quot;color: rgb(26, 32, 44); margin-bottom: 15px; font-size: 1.2em; border-bottom: 2px solid rgb(66, 153, 225); padding-bottom: 8px; font-family: &amp;quot;Segoe UI&amp;quot;, Tahoma, Geneva, Verdana, sans-serif; text-align: start;&quot;&gt;Research Steps&lt;/h3&gt;" style="rounded=1;whiteSpace=wrap;html=1;" vertex="1" parent="1">
          <mxGeometry x="827" y="-38" width="150" height="60" as="geometry" />
        </mxCell>
        <mxCell id="ppZeW9_H2Q4Zgy1ZlsiP-3" value="&lt;h3 style=&quot;color: rgb(26, 32, 44); margin-bottom: 15px; font-size: 1.2em; border-bottom: 2px solid rgb(221, 107, 32); padding-bottom: 8px; font-family: &amp;quot;Segoe UI&amp;quot;, Tahoma, Geneva, Verdana, sans-serif;&quot;&gt;AI Support at Each Step&lt;/h3&gt;" style="rounded=1;whiteSpace=wrap;html=1;" vertex="1" parent="1">
          <mxGeometry x="-110" y="-38" width="223" height="60" as="geometry" />
        </mxCell>
        <mxCell id="ppZeW9_H2Q4Zgy1ZlsiP-13" value="&lt;div data-en-clipboard=&quot;true&quot; data-pm-slice=&quot;1 1 []&quot; draggable=&quot;false&quot;&gt;&lt;font style=&quot;font-size: 15px;&quot;&gt;&amp;nbsp;&lt;/font&gt;&lt;font&gt;&lt;font style=&quot;&quot;&gt; &amp;nbsp; &amp;nbsp;&lt;/font&gt;&lt;span style=&quot;background-color: transparent; color: light-dark(rgb(0, 0, 0), rgb(255, 255, 255));&quot;&gt;⚙️&amp;nbsp;&lt;/span&gt;&lt;b style=&quot;background-color: transparent; color: light-dark(rgb(0, 0, 0), rgb(255, 255, 255));&quot;&gt;Understanding AI’s Role in the Historical Research Workflow&lt;/b&gt;&lt;/font&gt;&lt;/div&gt;&lt;blockquote style=&quot;margin: 0 0 0 40px; border: none; padding: 0px;&quot;&gt;&lt;div data-en-clipboard=&quot;true&quot; data-pm-slice=&quot;1 1 []&quot; draggable=&quot;false&quot;&gt;&lt;font&gt;&lt;font style=&quot;&quot;&gt;&lt;span style=&quot;background-color: transparent; color: light-dark(rgb(0, 0, 0), rgb(255, 255, 255));&quot;&gt;Throughout this workflow, Artificial Intelligence (AI) tools are positioned as&amp;nbsp;&lt;/span&gt;&lt;i style=&quot;background-color: transparent; color: light-dark(rgb(0, 0, 0), rgb(255, 255, 255));&quot;&gt;assistants&lt;/i&gt;&lt;span style=&quot;background-color: transparent; color: light-dark(rgb(0, 0, 0), rgb(255, 255, 255));&quot;&gt;&amp;nbsp;rather than interpreters.&lt;/span&gt;&lt;span style=&quot;background-color: transparent; color: light-dark(rgb(0, 0, 0), rgb(255, 255, 255));&quot;&gt;&amp;nbsp;&lt;/span&gt;&lt;/font&gt;This chart condenses the full 9-step historian&#39;s research workflow with AI support, highlighting key tasks&amp;nbsp; &amp;nbsp;&lt;/font&gt;&lt;font style=&quot;background-color: transparent; color: light-dark(rgb(0, 0, 0), rgb(255, 255, 255));&quot;&gt;and&amp;nbsp;&lt;/font&gt;&lt;span style=&quot;background-color: transparent; color: light-dark(rgb(0, 0, 0), rgb(255, 255, 255));&quot;&gt;AI functions using a five-part typology:&lt;/span&gt;&lt;/div&gt;&lt;/blockquote&gt;&lt;blockquote style=&quot;margin: 0 0 0 40px; border: none; padding: 0px;&quot;&gt;&lt;font&gt;(🔵)&amp;nbsp;&lt;span style=&quot;background-color: transparent; color: light-dark(rgb(0, 0, 0), rgb(255, 255, 255));&quot;&gt;Discover&lt;/span&gt;&lt;span style=&quot;background-color: transparent; color: light-dark(rgb(0, 0, 0), rgb(255, 255, 255));&quot;&gt;: Reveal patterns, gaps, sources, and comparisons&lt;/span&gt;&lt;/font&gt;&lt;/blockquote&gt;&lt;blockquote style=&quot;margin: 0 0 0 40px; border: none; padding: 0px;&quot;&gt;&lt;font&gt;(🟠)&amp;nbsp;&lt;span style=&quot;background-color: transparent; color: light-dark(rgb(0, 0, 0), rgb(255, 255, 255));&quot;&gt;Analyze: Extract, compare, summarize, cluster, and track data&lt;br&gt;&lt;/span&gt;(🟢)&amp;nbsp;&lt;span style=&quot;background-color: transparent; color: light-dark(rgb(0, 0, 0), rgb(255, 255, 255));&quot;&gt;Support Writing: Draft, edit, structure, and revise prose&lt;br&gt;&lt;/span&gt;(🟣)&amp;nbsp;&lt;span style=&quot;background-color: transparent; color: light-dark(rgb(0, 0, 0), rgb(255, 255, 255));&quot;&gt;Visualize: Produce maps, charts, timelines, and networks&lt;br&gt;&lt;/span&gt;(🔴)&lt;span style=&quot;background-color: transparent; color: light-dark(rgb(0, 0, 0), rgb(255, 255, 255));&quot;&gt;Translate &amp;amp; Contextualize: Render and interpret foreign-language content or culturally specific frameworks&lt;br&gt;&lt;br&gt;&lt;/span&gt;&lt;/font&gt;&lt;/blockquote&gt;&lt;blockquote style=&quot;margin: 0 0 0 40px; border: none; padding: 0px;&quot;&gt;&lt;font style=&quot;&quot;&gt;&lt;font&gt;These categories serve as a shorthand for the AI affordances described at each step. They are not rigid: many tools perform multiple functions (eg, GPT-4 can support both translation and argument development). However, this typology helps foreground the&amp;nbsp;&lt;i style=&quot;&quot;&gt;cognitive and methodological diversity&lt;/i&gt;&amp;nbsp;of AI use in historical practice, without flattening the historian’s interpretive labor.&lt;/font&gt;&lt;/font&gt;&lt;/blockquote&gt;" style="rounded=1;whiteSpace=wrap;html=1;align=left;" vertex="1" parent="1">
          <mxGeometry x="339" y="1300" width="746" height="210" as="geometry" />
        </mxCell>
      </root>
    </mxGraphModel>
  </diagram>
</mxfile>
